<svg aria-hidden="true" style="position: absolute; width: 0; height: 0; overflow: hidden;" version="1.1" xmlns="http://www.w3.org/2000/svg" xmlns:xlink="http://www.w3.org/1999/xlink">
<defs>
<symbol id="icon-facebook" viewBox="0 0 16 16">
<path d="M10.665 2.657h1.461v-2.544c-0.252-0.035-1.119-0.113-2.128-0.113-2.106 0-3.549 1.325-3.549 3.759v2.241h-2.324v2.844h2.324v7.156h2.849v-7.155h2.23l0.354-2.844h-2.585v-1.959c0.001-0.822 0.222-1.385 1.367-1.385z"></path>
</symbol>
<symbol id="icon-instagram" viewBox="0 0 16 16">
<path d="M15.984 4.704c-0.037-0.85-0.175-1.435-0.372-1.941-0.203-0.538-0.516-1.019-0.925-1.419-0.4-0.406-0.885-0.722-1.416-0.922-0.509-0.197-1.091-0.334-1.941-0.372-0.857-0.041-1.128-0.050-3.301-0.050s-2.444 0.009-3.298 0.047c-0.85 0.037-1.435 0.175-1.941 0.372-0.538 0.203-1.019 0.516-1.419 0.925-0.406 0.4-0.722 0.885-0.922 1.416-0.197 0.51-0.334 1.091-0.372 1.941-0.041 0.856-0.050 1.128-0.050 3.301s0.009 2.444 0.047 3.298c0.037 0.85 0.175 1.435 0.372 1.941 0.203 0.538 0.519 1.019 0.925 1.419 0.4 0.406 0.885 0.722 1.416 0.922 0.51 0.197 1.091 0.335 1.941 0.372 0.853 0.038 1.125 0.047 3.298 0.047s2.444-0.009 3.298-0.047c0.85-0.037 1.435-0.175 1.941-0.372 1.075-0.416 1.925-1.266 2.341-2.341 0.197-0.509 0.334-1.091 0.372-1.941 0.038-0.853 0.047-1.125 0.047-3.298s-0.003-2.444-0.041-3.298zM14.543 11.236c-0.034 0.781-0.166 1.203-0.275 1.485-0.269 0.697-0.822 1.25-1.519 1.519-0.281 0.109-0.706 0.241-1.485 0.275-0.844 0.038-1.097 0.047-3.232 0.047s-2.391-0.009-3.232-0.047c-0.781-0.034-1.203-0.166-1.485-0.275-0.347-0.128-0.663-0.331-0.919-0.597-0.266-0.259-0.469-0.572-0.597-0.919-0.109-0.281-0.241-0.706-0.275-1.485-0.038-0.844-0.047-1.097-0.047-3.232s0.009-2.391 0.047-3.232c0.034-0.781 0.166-1.203 0.275-1.485 0.128-0.347 0.331-0.663 0.6-0.919 0.259-0.266 0.572-0.469 0.919-0.597 0.281-0.109 0.706-0.241 1.485-0.275 0.844-0.037 1.097-0.047 3.232-0.047 2.138 0 2.391 0.009 3.232 0.047 0.781 0.034 1.203 0.166 1.485 0.275 0.347 0.128 0.663 0.331 0.919 0.597 0.266 0.259 0.469 0.572 0.597 0.919 0.109 0.281 0.241 0.706 0.275 1.485 0.037 0.844 0.047 1.097 0.047 3.232s-0.009 2.385-0.047 3.229z"></path>
<path d="M8.030 3.891c-2.269 0-4.11 1.841-4.11 4.11s1.841 4.11 4.11 4.11c2.269 0 4.11-1.841 4.11-4.11s-1.841-4.11-4.11-4.11zM8.030 10.668c-1.472 0-2.666-1.194-2.666-2.666s1.194-2.666 2.666-2.666c1.472 0 2.666 1.194 2.666 2.666s-1.194 2.666-2.666 2.666z"></path>
<path d="M13.262 3.729c0 0.53-0.43 0.96-0.96 0.96s-0.96-0.43-0.96-0.96c0-0.53 0.43-0.96 0.96-0.96s0.96 0.43 0.96 0.96z"></path>
</symbol>
<symbol id="icon-linkedin" viewBox="0 0 16 16">
<path d="M15.996 16v-0.001h0.004v-5.868c0-2.871-0.618-5.082-3.974-5.082-1.613 0-2.696 0.885-3.138 1.725h-0.047v-1.457h-3.182v10.682h3.313v-5.289c0-1.393 0.264-2.739 1.989-2.739 1.699 0 1.725 1.589 1.725 2.829v5.201h3.31z"></path>
<path d="M0.264 5.318h3.317v10.682h-3.317v-10.682z"></path>
<path d="M1.921-0c-1.061 0-1.921 0.861-1.921 1.921s0.861 1.939 1.921 1.939c1.061 0 1.921-0.879 1.921-1.939s-0.861-1.921-1.921-1.921v0z"></path>
</symbol>
<symbol id="icon-twitter" viewBox="0 0 16 16">
<path d="M16 3.039c-0.595 0.261-1.229 0.434-1.89 0.518 0.68-0.406 1.199-1.044 1.443-1.813-0.634 0.378-1.334 0.645-2.080 0.794-0.602-0.641-1.46-1.038-2.396-1.038-1.816 0-3.278 1.474-3.278 3.281 0 0.26 0.022 0.51 0.076 0.748-2.727-0.133-5.14-1.44-6.761-3.431-0.283 0.491-0.449 1.053-0.449 1.658 0 1.136 0.585 2.143 1.457 2.726-0.527-0.010-1.044-0.163-1.482-0.404 0 0.010 0 0.023 0 0.036 0 1.594 1.137 2.918 2.628 3.223-0.267 0.073-0.558 0.108-0.86 0.108-0.21 0-0.422-0.012-0.621-0.056 0.425 1.299 1.631 2.254 3.065 2.285-1.116 0.873-2.533 1.399-4.067 1.399-0.269 0-0.527-0.012-0.785-0.045 1.453 0.937 3.175 1.472 5.032 1.472 6.036 0 9.336-5 9.336-9.334 0-0.145-0.005-0.285-0.012-0.424 0.651-0.462 1.198-1.039 1.644-1.703z"></path>
</symbol>
<symbol id="icon-antenna" viewBox="0 0 16 16">
<path d="M15.387 11.049l-4.222-4.253 0.469-2.308c0.121 0.047 0.249 0.072 0.379 0.073h0.003c0.596 0.007 1.085-0.471 1.092-1.067s-0.47-1.085-1.067-1.092c-0.596-0.007-1.085 0.47-1.092 1.067-0.002 0.128 0.020 0.254 0.062 0.375l-2.48 0.303-4.045-4.066c-0.050-0.051-0.117-0.079-0.188-0.080s-0.137 0.028-0.187 0.078l-0.756 0.752c-0.104 0.104-0.104 0.273 0 0.377l0.407 0.413c-1.577 2.899-1.064 6.489 1.26 8.831 0.021 0.020 0.046 0.037 0.073 0.049-0.017 0.090-0.026 0.182-0.026 0.274v3.093h-3.2c-0.736 0.001-1.332 0.597-1.333 1.333v0.533c0 0.147 0.119 0.267 0.267 0.267h12.267c0.147 0 0.267-0.119 0.267-0.267v-0.533c-0.001-0.736-0.597-1.332-1.333-1.333h-3.2v-1.371c0.501 0.105 1.012 0.159 1.524 0.16 1.229-0.001 2.439-0.308 3.52-0.892l0.409 0.411c0.050 0.051 0.117 0.079 0.188 0.080s0.137-0.028 0.187-0.078l0.756-0.752c0.104-0.104 0.104-0.273 0-0.377zM11.64 3.117c0.209-0.208 0.547-0.207 0.754 0.002s0.207 0.547-0.002 0.754c-0.1 0.099-0.235 0.155-0.376 0.155h-0.002c-0.295-0.002-0.532-0.242-0.531-0.536 0.001-0.141 0.057-0.276 0.157-0.375h-0.001zM11.012 4.869l-0.299 1.473-0.588-0.591 0.887-0.882zM10.709 4.418l-0.96 0.954-0.743-0.747 1.703-0.208zM12.002 14.4c0.442 0 0.8 0.358 0.8 0.8v0.267h-11.733v-0.267c0-0.442 0.358-0.8 0.8-0.8h10.133zM8.269 13.333v0.533h-2.667v-0.533h2.667zM5.602 12.8v-2.027c0-0.647 0.598-1.173 1.333-1.173s1.333 0.526 1.333 1.173v2.027h-2.667zM8.802 11.952v-1.179c0-0.941-0.837-1.707-1.867-1.707-0.666-0.010-1.288 0.329-1.641 0.893-2.029-2.137-2.486-5.323-1.139-7.944l9.301 9.354c-1.436 0.731-3.083 0.936-4.654 0.582zM14.447 11.61l-10.529-10.59 0.377-0.376 3.967 3.99c0.002 0 0.003 0.003 0.005 0.005l6.557 6.596-0.378 0.376z"></path>
<path d="M6.938 10.133h-0.002c-0.442-0.001-0.801 0.357-0.801 0.799s0.357 0.801 0.799 0.801h0.002c0.442 0.001 0.801-0.357 0.801-0.799s-0.357-0.801-0.799-0.801zM7.124 11.122c-0.050 0.050-0.118 0.078-0.189 0.078-0.147-0.001-0.266-0.121-0.265-0.268 0-0.070 0.029-0.138 0.079-0.188s0.117-0.077 0.187-0.078c0.147 0.001 0.266 0.121 0.265 0.268-0 0.070-0.029 0.138-0.079 0.188h0.002z"></path>
</symbol>
<symbol id="icon-astronaut" viewBox="0 0 16 16">
<path d="M15.987 2.262c-0.031-0.096-0.115-0.167-0.215-0.181l-0.955-0.139-0.427-0.866c-0.090-0.182-0.389-0.182-0.478 0l-0.427 0.866-0.955 0.139c-0.101 0.015-0.184 0.085-0.215 0.181s-0.005 0.203 0.067 0.273l0.691 0.674-0.163 0.951c-0.017 0.1 0.024 0.201 0.106 0.261 0.083 0.060 0.191 0.068 0.281 0.020l0.854-0.449 0.854 0.449c0.039 0.021 0.082 0.031 0.124 0.031 0.055 0 0.11-0.017 0.157-0.051 0.082-0.060 0.123-0.161 0.106-0.261l-0.163-0.951 0.691-0.674c0.072-0.071 0.099-0.177 0.067-0.273zM14.756 2.925c-0.063 0.061-0.091 0.15-0.077 0.236l0.095 0.557-0.5-0.263c-0.039-0.021-0.082-0.031-0.124-0.031s-0.085 0.010-0.124 0.031l-0.5 0.263 0.095-0.557c0.015-0.086-0.014-0.175-0.077-0.236l-0.405-0.395 0.559-0.081c0.087-0.013 0.162-0.067 0.201-0.146l0.25-0.507 0.25 0.507c0.039 0.079 0.114 0.133 0.201 0.146l0.559 0.081-0.405 0.395z"></path>
<path d="M13.067 10.261h-0.533v0.533h0.533v-0.533z"></path>
<path d="M13.067 11.328h-0.533v0.533h0.533v-0.533z"></path>
<path d="M13.6 10.794h-0.533v0.533h0.533v-0.533z"></path>
<path d="M12.533 10.794h-0.533v0.533h0.533v-0.533z"></path>
<path d="M11.2 13.194h-0.533v0.533h0.533v-0.533z"></path>
<path d="M11.2 14.261h-0.533v0.533h0.533v-0.533z"></path>
<path d="M11.733 13.728h-0.533v0.533h0.533v-0.533z"></path>
<path d="M10.667 13.728h-0.533v0.533h0.533v-0.533z"></path>
<path d="M8 12.128h-0.533v0.533h0.533v-0.533z"></path>
<path d="M8 13.194h-0.533v0.533h0.533v-0.533z"></path>
<path d="M8.533 12.661h-0.533v0.533h0.533v-0.533z"></path>
<path d="M7.467 12.661h-0.533v0.533h0.533v-0.533z"></path>
<path d="M2.933 3.061h-0.533v0.533h0.533v-0.533z"></path>
<path d="M2.933 4.128h-0.533v0.533h0.533v-0.533z"></path>
<path d="M3.467 3.594h-0.533v0.533h0.533v-0.533z"></path>
<path d="M2.4 3.594h-0.533v0.533h0.533v-0.533z"></path>
<path d="M12.357 7.080c-0.144-0.194-0.355-0.319-0.594-0.352-0.241-0.034-0.478 0.029-0.67 0.176l-0.626 0.48-0.949 0.709-0.679-0.27c1.211-0.543 2.057-1.754 2.057-3.16 0-1.912-1.561-3.467-3.481-3.467s-3.481 1.555-3.481 3.467c0 0.693 0.207 1.337 0.56 1.879l-1.382-0.012c-0.001 0-0.002 0-0.002 0-0.004 0-0.008 0.002-0.012 0.002-0.026 0.001-0.052 0.006-0.078 0.015-0.006 0.002-0.013 0.004-0.019 0.007-0.003 0.001-0.006 0.002-0.010 0.003l-1.617 0.798c-0 0-0.001 0-0.001 0l-0.947 0.455c-0.010 0.005-0.021 0.011-0.031 0.018-0.377 0.251-0.506 0.745-0.299 1.148 0.11 0.214 0.298 0.372 0.528 0.445 0.089 0.028 0.179 0.041 0.27 0.041 0.145 0 0.288-0.035 0.42-0.106l0.694-0.369 1.132-0.585 0.678-0.004-2.721 2.708c-0 0-0.001 0-0.001 0.001l-0.669 0.667c-0.158 0.157-0.245 0.366-0.245 0.589s0.087 0.432 0.245 0.589c0.162 0.162 0.376 0.243 0.59 0.243s0.427-0.081 0.59-0.243l0.657-0.654 0.87-0.65 0.45 0.449-0.881 0.877c-0 0-0.001 0-0.001 0.001l-0.669 0.667c-0.158 0.157-0.245 0.366-0.245 0.589s0.087 0.432 0.245 0.589c0.162 0.162 0.376 0.243 0.59 0.243s0.427-0.081 0.59-0.243l1.741-1.733c0-0 0-0.001 0.001-0.001l0.505-0.5-0.002-0.002c0.003-0.003 0.008-0.004 0.011-0.008l2.583-2.829 1.736 0.247c0.013 0.002 0.025 0.003 0.038 0.003 0.032 0 0.063-0.008 0.094-0.019 0.009-0.003 0.017-0.007 0.025-0.012 0.010-0.005 0.020-0.007 0.029-0.014l1.607-1.067c0.006-0.004 0.009-0.010 0.015-0.015s0.014-0.007 0.020-0.013l0.636-0.595c0.331-0.31 0.376-0.818 0.106-1.181zM1.065 8.885c-0.087 0.046-0.185 0.056-0.279 0.026s-0.169-0.093-0.213-0.179c-0.081-0.157-0.034-0.348 0.107-0.451l0.657-0.316 0.225 0.656-0.496 0.264zM2.814 7.971l-0.774 0.4-0.219-0.642 1.013-0.5-0.020 0.742zM10.363 4.661c0 0.459-0.11 0.892-0.299 1.28l-2.091-0.95c-0.022-0.287-0.171-0.538-0.394-0.694l0.732-2.43c1.189 0.378 2.052 1.487 2.052 2.794zM4.469 4.661c0-1.617 1.322-2.933 2.947-2.933 0.126 0 0.25 0.011 0.373 0.026l-0.716 2.377c-0.010-0-0.019-0.003-0.029-0.003-0.516 0-0.936 0.419-0.936 0.933s0.42 0.933 0.936 0.933c0.347 0 0.647-0.192 0.809-0.472l1.931 0.877c-0.537 0.723-1.397 1.195-2.368 1.195-1.625 0-2.947-1.316-2.947-2.933zM7.447 5.061c0 0.221-0.181 0.4-0.403 0.4s-0.403-0.179-0.403-0.4c0-0.221 0.181-0.4 0.403-0.4s0.403 0.179 0.403 0.4zM1.232 12.573c-0.118 0.117-0.309 0.117-0.427 0-0.057-0.057-0.088-0.132-0.088-0.211s0.031-0.154 0.088-0.211l0.481-0.479 0.426 0.424-0.479 0.477zM2.839 14.44c-0.118 0.117-0.31 0.117-0.427 0-0.057-0.057-0.088-0.132-0.088-0.211s0.031-0.154 0.088-0.211l0.481-0.479 0.426 0.424-0.48 0.478zM4.58 12.705c-0 0-0.001 0-0.001 0.001l-0.882 0.88-0.426-0.424 0.882-0.878c0 0 0 0 0-0s0.001-0 0.001-0.001c0.020-0.020 0.033-0.044 0.045-0.068 0.003-0.007 0.010-0.013 0.013-0.020 0.008-0.021 0.010-0.043 0.013-0.064 0.002-0.012 0.007-0.024 0.007-0.036 0-0.018-0.006-0.035-0.010-0.053-0.003-0.016-0.003-0.032-0.009-0.048-0.010-0.025-0.027-0.047-0.046-0.069-0.005-0.006-0.007-0.013-0.013-0.019 0 0 0 0-0 0s-0-0.001-0.001-0.001l-0.804-0.8c-0.009-0.009-0.019-0.012-0.029-0.019-0.014-0.011-0.028-0.021-0.043-0.029s-0.031-0.012-0.047-0.016c-0.017-0.005-0.034-0.009-0.051-0.010-0.016-0.001-0.031 0.001-0.048 0.002-0.018 0.002-0.035 0.005-0.052 0.010s-0.032 0.014-0.047 0.022c-0.010 0.006-0.021 0.007-0.030 0.014l-0.887 0.662-0.45-0.449 1.2-1.193 2.18 2.144-0.464 0.459zM7.99 9.197c-0.008-0.001-0.015 0.002-0.023 0.001-0.019-0.001-0.038 0-0.058 0.003-0.015 0.003-0.030 0.006-0.044 0.011-0.017 0.006-0.033 0.014-0.048 0.023s-0.029 0.019-0.042 0.031c-0.006 0.006-0.014 0.008-0.020 0.015l-2.349 2.573-2.164-2.128 1.417-1.409c0.104-0.104 0.105-0.273 0.001-0.377-0.053-0.053-0.122-0.078-0.191-0.078v-0l-1.109 0.007 0.014-0.804 1.552 0.013c0.633 0.647 1.515 1.050 2.491 1.050 0.219 0 0.432-0.023 0.64-0.061 0.020 0.016 0.040 0.032 0.065 0.042l1.205 0.48 0.076 0.379 0.089 0.443-1.501-0.214zM10.010 9.286l-0.157-0.779 0.723-0.54 0.473 0.628-1.040 0.691zM11.887 7.871l-0.419 0.393-0.466-0.618 0.416-0.319c0.078-0.060 0.175-0.084 0.271-0.071 0.097 0.014 0.182 0.064 0.24 0.142 0.108 0.146 0.090 0.349-0.043 0.474z"></path>
<path d="M6.801 9.272l-1.071-1.067c-0.104-0.104-0.272-0.104-0.376 0l-1.071 1.067c-0.050 0.050-0.078 0.118-0.078 0.189s0.028 0.139 0.078 0.189l1.071 1.067c0.052 0.052 0.12 0.078 0.188 0.078s0.136-0.026 0.188-0.078l1.071-1.067c0.050-0.050 0.079-0.118 0.079-0.189s-0.028-0.139-0.079-0.189zM5.542 10.152l-0.693-0.69 0.693-0.69 0.694 0.69-0.694 0.69z"></path>
<path d="M8.582 2.535l-0.129 0.518c0.035 0.009 0.869 0.226 0.869 1.074h0.533c-0-1.009-0.833-1.483-1.273-1.592z"></path>
<path d="M9.855 4.661h-0.533v0.533h0.533v-0.533z"></path>
</symbol>
<symbol id="icon-clock" viewBox="0 0 16 16">
<path d="M15.648 7.651c-0.001-4.226-3.428-7.651-7.654-7.651s-7.651 3.428-7.651 7.654c0.001 3.329 2.153 6.276 5.325 7.288 0.030 0.010 0.062 0.014 0.093 0.014 0.060-0 0.119-0.016 0.171-0.047 0.067-0.040 0.118-0.103 0.142-0.178l1.932-6.125c0.528-0.003 0.954-0.433 0.952-0.961s-0.433-0.954-0.961-0.952c-0.142 0.001-0.282 0.033-0.41 0.096l-2.553-2.553c-0.127-0.122-0.329-0.119-0.451 0.008-0.119 0.124-0.119 0.319 0 0.443l2.552 2.555c-0.196 0.4-0.084 0.882 0.268 1.155l-1.841 5.836c-3.639-1.34-5.502-5.377-4.162-9.016s5.377-5.502 9.016-4.162c3.639 1.34 5.502 5.377 4.162 9.016-0.655 1.778-2 3.216-3.731 3.987l-0.199-0.937c-0.036-0.172-0.206-0.282-0.378-0.246-0.054 0.012-0.105 0.037-0.146 0.074l-1.918 1.713c-0.132 0.117-0.143 0.319-0.026 0.45 0.038 0.043 0.087 0.074 0.142 0.092l2.449 0.782c0.168 0.054 0.347-0.038 0.401-0.206 0.017-0.053 0.020-0.109 0.008-0.164l-0.196-0.92c2.832-1.194 4.671-3.971 4.664-7.045zM7.996 7.332c0.176 0 0.319 0.143 0.319 0.319s-0.143 0.319-0.319 0.319c-0.176 0-0.319-0.143-0.319-0.319s0.143-0.319 0.319-0.319zM9.046 14.764l1.092-0.974 0.301 1.42-1.393-0.446z"></path>
<path d="M7.677 1.593v0.638c0 0.176 0.143 0.319 0.319 0.319s0.319-0.143 0.319-0.319v-0.638c0-0.176-0.143-0.319-0.319-0.319s-0.319 0.143-0.319 0.319z"></path>
<path d="M1.938 7.332c-0.176 0-0.319 0.143-0.319 0.319s0.143 0.319 0.319 0.319h0.638c0.176 0 0.319-0.143 0.319-0.319s-0.143-0.319-0.319-0.319h-0.638z"></path>
<path d="M14.054 7.969c0.176 0 0.319-0.143 0.319-0.319s-0.143-0.319-0.319-0.319h-0.638c-0.176 0-0.319 0.143-0.319 0.319s0.143 0.319 0.319 0.319h0.638z"></path>
</symbol>
<symbol id="icon-diagram" viewBox="0 0 16 16">
<path d="M7.463 7.482h0.533v2.399h-0.533v-2.399z"></path>
<path d="M9.595 8.548h0.533v1.333h-0.533v-1.333z"></path>
<path d="M5.331 9.348h0.533v0.533h-0.533v-0.533z"></path>
<path d="M3.731 9.081h0.533v0.8h-0.533v-0.8z"></path>
<path d="M0.8 14.145h12.793c0.442 0 0.8-0.358 0.8-0.8v-1.066c0-0.442-0.358-0.8-0.8-0.8h-0.267v-6.647l1.514-1.434c0.351 0.173 0.777 0.068 1.007-0.249s0.198-0.754-0.076-1.034-0.71-0.322-1.032-0.099c-0.322 0.223-0.437 0.646-0.271 1.001l-1.141 1.081v-0.615c0-0.442-0.358-0.8-0.8-0.8h-10.661c-0.442 0-0.8 0.358-0.8 0.8v7.996h-0.267c-0.442 0-0.8 0.358-0.8 0.8v1.066c0 0.442 0.358 0.8 0.8 0.8zM15.192 2.418c0.147 0 0.267 0.119 0.267 0.267s-0.119 0.267-0.267 0.267c-0.147 0-0.267-0.119-0.267-0.267s0.119-0.267 0.267-0.267zM1.599 3.484c0-0.147 0.119-0.267 0.267-0.267h10.661c0.147 0 0.267 0.119 0.267 0.267v1.119l-0.533 0.507v-1.093c0-0.147-0.119-0.267-0.267-0.267h-9.595c-0.147 0-0.267 0.119-0.267 0.267v6.663c0 0.147 0.119 0.267 0.267 0.267h9.595c0.147 0 0.267-0.119 0.267-0.267v-4.837l0.533-0.505v6.142h-11.194v-7.996zM3.998 6.949c-0.361-0.001-0.677 0.239-0.773 0.587s0.053 0.716 0.363 0.9c0.31 0.184 0.705 0.138 0.964-0.113l0.926 0.465c0.108 0.054 0.238 0.029 0.318-0.061l1.969-2.216 1.936 1.451c0.104 0.078 0.249 0.070 0.343-0.020l1.683-1.594v4.066h-9.062v-6.13h9.062v1.33l-1.886 1.786-1.952-1.464c-0.111-0.083-0.267-0.067-0.359 0.036l-1.996 2.246-0.746-0.373c0.005-0.032 0.009-0.064 0.010-0.097 0-0.442-0.358-0.8-0.8-0.8zM4.264 7.749c0 0.147-0.119 0.267-0.267 0.267s-0.267-0.119-0.267-0.267c0-0.147 0.119-0.267 0.267-0.267s0.267 0.119 0.267 0.267zM5.864 12.013h2.665v0.267c0 0.147-0.119 0.267-0.267 0.267h-2.132c-0.147 0-0.267-0.119-0.267-0.267v-0.267zM0.533 12.28c0-0.147 0.119-0.267 0.267-0.267h4.531v0.267c0 0.442 0.358 0.8 0.8 0.8h2.132c0.442 0 0.8-0.358 0.8-0.8v-0.267h4.531c0.147 0 0.267 0.119 0.267 0.267v1.066c0 0.147-0.119 0.267-0.267 0.267h-12.793c-0.147 0-0.267-0.119-0.267-0.267v-1.066z"></path>
</symbol>
<symbol id="icon-brand" viewBox="0 0 22 16">
<path d="M1.667 13.347c0.085 0.095 0.131 0.214 0.128 0.337 0.004 0.080-0.011 0.159-0.046 0.233s-0.087 0.139-0.153 0.192c-0.166 0.113-0.371 0.168-0.579 0.155h-1.017v-2.133h0.997c0.197-0.012 0.392 0.038 0.552 0.142 0.064 0.048 0.115 0.11 0.149 0.179s0.049 0.145 0.044 0.22c0.006 0.118-0.035 0.233-0.116 0.326-0.077 0.085-0.184 0.144-0.303 0.167 0.135 0.022 0.257 0.087 0.344 0.182v0zM0.473 13.025h0.426c0.097 0.006 0.193-0.019 0.271-0.071 0.032-0.026 0.057-0.058 0.073-0.095s0.022-0.075 0.019-0.114c0.003-0.039-0.004-0.077-0.019-0.113s-0.040-0.068-0.071-0.095c-0.080-0.054-0.179-0.079-0.279-0.072h-0.419v0.56zM1.212 13.843c0.034-0.027 0.061-0.060 0.079-0.098s0.025-0.078 0.022-0.119c0.003-0.041-0.005-0.082-0.023-0.12s-0.045-0.072-0.080-0.099c-0.083-0.056-0.186-0.083-0.289-0.077h-0.447v0.587h0.453c0.102 0.005 0.203-0.021 0.286-0.074v0z"></path>
<path d="M3.704 14.264l-0.554-0.834h-0.208v0.834h-0.477v-2.133h0.903c0.228-0.014 0.453 0.051 0.629 0.181 0.126 0.116 0.202 0.268 0.215 0.43s-0.040 0.322-0.147 0.452c-0.111 0.115-0.264 0.191-0.431 0.217l0.59 0.852h-0.519zM2.941 13.14h0.39c0.271 0 0.406-0.108 0.406-0.323 0.003-0.044-0.005-0.088-0.022-0.129s-0.044-0.079-0.078-0.11c-0.086-0.064-0.196-0.095-0.307-0.086h-0.395l0.005 0.649z"></path>
<path d="M6.31 13.835h-0.95l-0.168 0.429h-0.5l0.873-2.109h0.541l0.869 2.109h-0.5l-0.164-0.429zM6.183 13.512l-0.347-0.9-0.347 0.9h0.694z"></path>
<path d="M9.573 14.264h-0.473l-1.061-1.45v1.45h-0.472v-2.133h0.472l1.061 1.459v-1.459h0.473v2.133z"></path>
<path d="M12.275 13.754c-0.098 0.161-0.247 0.292-0.428 0.376-0.206 0.094-0.435 0.14-0.666 0.134h-0.843v-2.133h0.843c0.23-0.005 0.459 0.040 0.666 0.131 0.181 0.082 0.331 0.212 0.428 0.372 0.097 0.173 0.148 0.365 0.148 0.56s-0.051 0.386-0.148 0.56v0zM11.733 13.703c0.135-0.142 0.209-0.322 0.209-0.509s-0.074-0.367-0.209-0.509c-0.163-0.128-0.376-0.194-0.593-0.181h-0.329v1.381h0.329c0.216 0.012 0.429-0.053 0.593-0.181z"></path>
<path d="M6.607 0.267c0 0 6.11 2.077 5.981 5.082v5.083c0 0-6.106-2.078-5.978-5.083l-0.002-5.082z"></path>
<path d="M18.031 9.242c1.154-0.715 2.489-1.158 3.882-1.288v-1.591c-1.605 0.557-2.967 1.567-3.882 2.879v0z"></path>
<path d="M17.338 9.721c0.945-1.712 2.582-3.033 4.575-3.692v-4.585c0 0-8.702 2.958-8.518 7.238v7.237c0 0 0.388-0.132 0.998-0.38 0-0.231 0-0.465 0.028-0.699 0.18-1.987 1.229-3.828 2.917-5.118v0z"></path>
<path d="M16.51 12.409c0.046-0.502 0.148-0.998 0.304-1.482-1.051 1.114-1.687 2.497-1.82 3.954-0.013 0.138-0.020 0.275-0.023 0.417 0.494-0.214 1.069-0.48 1.674-0.794-0.154-0.689-0.2-1.395-0.135-2.096v0z"></path>
<path d="M16.856 12.435c-0.058 0.634-0.022 1.272 0.108 1.897 2.377-1.281 5.049-3.259 4.946-5.651v-0.208c-1.699 0.171-3.288 0.84-4.523 1.903-0.289 0.659-0.468 1.353-0.53 2.059v0z"></path>
</symbol>
<symbol id="icon-company" viewBox="0 0 12 16">
<path d="M5.266 0.903h-0.042c-0.065-0.004-0.129-0.005-0.194-0.007v0h-0.14c-0.122 0-0.247 0.003-0.371 0.009-0.009-0.001-0.019-0.001-0.028 0-1.121 0.064-2.22 0.344-3.236 0.825l-0.133 0.064v6.813l0.311-0.106c0.273-0.094 0.564-0.178 0.866-0.257 0.814-0.209 1.65-0.32 2.491-0.331v0.895c-0.111 0.001-0.22 0.004-0.328 0.009h-0.026c-0.647 0.035-1.289 0.134-1.916 0.294-0.795 0.199-1.562 0.498-2.283 0.89v-8.737c0.749-0.437 1.555-0.765 2.395-0.974 0.738-0.19 1.496-0.288 2.257-0.291h0.132c0.157 0.004 0.311 0.011 0.455 0.022 0.379 0.027 0.756 0.087 1.125 0.179v0.881c-0.358-0.083-0.723-0.138-1.090-0.164-0.007-0.001-0.015-0.001-0.022-0.002-0.076-0.006-0.152-0.013-0.223-0.013zM6.816 1.804c0.195 0.015 0.398 0.022 0.602 0.022 0.801-0.003 1.598-0.105 2.373-0.304 0.795-0.2 1.561-0.499 2.282-0.89v8.582c-0.749 0.436-1.556 0.764-2.396 0.974-0.738 0.19-1.496 0.287-2.257 0.29-0.577 0.005-1.152-0.063-1.712-0.202v-8.637c0.132 0.031 0.269 0.059 0.407 0.082 0.227 0.038 0.467 0.067 0.701 0.084zM11.184 1.87l-0.311 0.105c-0.286 0.096-0.575 0.182-0.866 0.259-0.845 0.217-1.714 0.329-2.587 0.332-0.203 0-0.39-0.005-0.571-0.017l-0.248-0.016v7.008l0.213 0.019c0.198 0.017 0.402 0.026 0.607 0.026 0.687-0.003 1.371-0.091 2.037-0.264 0.548-0.137 1.081-0.329 1.592-0.572l0.133-0.064v-6.815z"></path>
<path d="M0.842 12.988c-0.045-0.046-0.099-0.083-0.158-0.107s-0.124-0.035-0.188-0.033c-0.069-0.001-0.137 0.012-0.2 0.038-0.058 0.023-0.111 0.058-0.156 0.102s-0.078 0.098-0.1 0.156c-0.024 0.061-0.037 0.127-0.036 0.193v1.167c-0.003 0.082 0.013 0.164 0.046 0.239 0.028 0.060 0.067 0.113 0.117 0.156 0.047 0.039 0.101 0.068 0.16 0.083 0.057 0.016 0.115 0.024 0.174 0.024 0.065 0.001 0.129-0.013 0.188-0.041 0.058-0.026 0.111-0.062 0.156-0.108 0.043-0.045 0.078-0.098 0.102-0.156s0.038-0.122 0.037-0.186v-0.131h-0.305v0.104c0.001 0.036-0.005 0.071-0.018 0.104-0.010 0.025-0.025 0.047-0.044 0.066-0.019 0.015-0.041 0.027-0.064 0.034-0.021 0.007-0.042 0.011-0.064 0.011-0.027 0.003-0.055-0.001-0.080-0.012s-0.047-0.028-0.063-0.051c-0.029-0.047-0.043-0.101-0.040-0.156v-1.088c-0.002-0.060 0.011-0.12 0.037-0.174 0.016-0.025 0.038-0.044 0.065-0.057s0.056-0.017 0.085-0.014c0.026-0.001 0.052 0.005 0.076 0.016s0.044 0.029 0.060 0.050c0.034 0.045 0.052 0.1 0.051 0.156v0.101h0.302v-0.119c0.001-0.070-0.012-0.139-0.037-0.204-0.023-0.061-0.057-0.117-0.102-0.164z"></path>
<path d="M2.655 12.975c-0.097-0.082-0.22-0.128-0.347-0.128-0.062 0-0.124 0.011-0.182 0.033s-0.114 0.054-0.161 0.095c-0.051 0.045-0.091 0.101-0.118 0.164-0.031 0.071-0.046 0.148-0.044 0.226v1.12c-0.002 0.079 0.013 0.157 0.044 0.229 0.028 0.060 0.068 0.114 0.118 0.156 0.047 0.043 0.101 0.077 0.161 0.099 0.058 0.021 0.12 0.033 0.182 0.033s0.124-0.011 0.182-0.033c0.061-0.022 0.117-0.056 0.165-0.099s0.088-0.097 0.115-0.156c0.031-0.072 0.046-0.15 0.044-0.229v-1.12c0.002-0.078-0.014-0.155-0.044-0.226-0.027-0.062-0.066-0.117-0.115-0.164zM2.513 14.484c0.003 0.030-0.002 0.060-0.012 0.088s-0.027 0.053-0.049 0.074c-0.040 0.034-0.091 0.052-0.144 0.052s-0.103-0.019-0.144-0.052c-0.022-0.021-0.038-0.046-0.049-0.074s-0.015-0.058-0.012-0.088v-1.12c-0.003-0.030 0.002-0.060 0.012-0.088s0.027-0.053 0.049-0.074c0.040-0.034 0.091-0.052 0.144-0.052s0.103 0.019 0.144 0.052c0.022 0.021 0.038 0.046 0.049 0.074s0.015 0.058 0.012 0.088v1.12z"></path>
<path d="M5.036 14.984v-2.12h-0.293l-0.385 1.122h-0.005l-0.388-1.122h-0.29v2.12h0.303v-1.289h0.005l0.297 0.912h0.151l0.299-0.912h0.005v1.289h0.303z"></path>
<path d="M6.756 13.013c-0.047-0.052-0.105-0.092-0.171-0.116-0.071-0.023-0.145-0.034-0.22-0.033h-0.45v2.12h0.302v-0.828h0.156c0.094 0.004 0.188-0.016 0.272-0.058 0.069-0.038 0.126-0.094 0.166-0.162 0.035-0.056 0.058-0.119 0.069-0.185 0.012-0.080 0.017-0.16 0.016-0.241 0.003-0.102-0.007-0.204-0.030-0.303-0.020-0.073-0.058-0.14-0.111-0.195zM6.601 13.66c-0.001 0.038-0.011 0.076-0.028 0.11-0.017 0.033-0.045 0.059-0.078 0.074-0.045 0.020-0.094 0.029-0.142 0.027h-0.138v-0.721h0.156c0.047-0.002 0.094 0.007 0.136 0.027 0.031 0.018 0.056 0.045 0.071 0.078 0.017 0.037 0.026 0.077 0.026 0.118 0 0.045 0 0.092 0 0.141s0.003 0.1 0 0.146h-0.003z"></path>
<path d="M8.187 12.865h-0.248l-0.467 2.12h0.302l0.089-0.455h0.412l0.089 0.455h0.302l-0.479-2.12zM7.908 14.24l0.149-0.768h0.005l0.148 0.768h-0.302z"></path>
<path d="M10.138 14.142h-0.005l-0.456-1.277h-0.29v2.12h0.302v-1.275h0.006l0.462 1.275h0.284v-2.12h-0.302v1.277z"></path>
<path d="M11.984 12.865l-0.243 0.843h-0.006l-0.243-0.843h-0.32l0.415 1.224v0.896h0.302v-0.896l0.415-1.224h-0.32z"></path>
<path d="M0 15.583h0.146v0.408h0.099v-0.408h0.145v-0.084h-0.389v0.084z"></path>
<path d="M1.224 15.499l-0.191 0.492h0.105l0.040-0.112h0.196l0.042 0.112h0.107l-0.195-0.492h-0.105zM1.208 15.797l0.067-0.182 0.067 0.182h-0.134z"></path>
<path d="M2.433 15.81h0.114v0.063c-0.033 0.027-0.074 0.041-0.117 0.041-0.020 0.001-0.040-0.003-0.058-0.011s-0.034-0.021-0.046-0.036c-0.026-0.037-0.039-0.083-0.037-0.128 0-0.11 0.047-0.164 0.142-0.164 0.025-0.002 0.050 0.004 0.070 0.018s0.035 0.036 0.041 0.060l0.097-0.019c-0.021-0.096-0.090-0.145-0.209-0.145-0.063-0.002-0.125 0.021-0.172 0.063-0.025 0.024-0.044 0.054-0.056 0.087s-0.017 0.068-0.015 0.103c-0.003 0.067 0.020 0.133 0.063 0.185 0.024 0.025 0.053 0.044 0.086 0.057s0.067 0.018 0.101 0.015c0.077 0.002 0.152-0.026 0.209-0.078v-0.194h-0.213v0.083z"></path>
<path d="M3.668 15.499h-0.1v0.492h0.345v-0.084h-0.245v-0.408z"></path>
<path d="M4.713 15.499h-0.1v0.492h0.1v-0.492z"></path>
<path d="M5.734 15.828l-0.202-0.329h-0.097v0.492h0.093v-0.322l0.198 0.322h0.099v-0.492h-0.091v0.329z"></path>
<path d="M6.657 15.775h0.245v-0.084h-0.245v-0.108h0.264v-0.084h-0.364v0.492h0.374v-0.084h-0.274v-0.133z"></path>
<path d="M8.896 15.693h-0.194v-0.194h-0.099v0.492h0.099v-0.215h0.194v0.215h0.099v-0.492h-0.099v0.194z"></path>
<path d="M9.825 15.775h0.246v-0.084h-0.246v-0.108h0.265v-0.084h-0.364v0.492h0.373v-0.084h-0.274v-0.133z"></path>
<path d="M11.084 15.775c0.086-0.013 0.129-0.059 0.129-0.137 0.002-0.021-0.001-0.042-0.009-0.061s-0.022-0.036-0.039-0.048c-0.045-0.022-0.094-0.032-0.144-0.029h-0.209v0.492h0.099v-0.206h0.019c0.021-0.001 0.042 0.002 0.061 0.011 0.014 0.009 0.027 0.021 0.035 0.036l0.107 0.156h0.118l-0.060-0.096c-0.027-0.047-0.064-0.088-0.109-0.118zM10.984 15.707h-0.073v-0.124h0.078c0.034-0.003 0.068 0.001 0.1 0.012 0.007 0.006 0.013 0.014 0.017 0.023s0.005 0.018 0.005 0.028c-0 0.010-0.003 0.019-0.008 0.027s-0.011 0.016-0.019 0.021c-0.033 0.010-0.067 0.014-0.1 0.012z"></path>
<path d="M12.034 15.775h0.245v-0.084h-0.245v-0.108h0.265v-0.084h-0.364v0.492h0.374v-0.084h-0.274v-0.133z"></path>
</symbol>
<symbol id="icon-foster" viewBox="0 0 33 16">
<path d="M5.104 4.885h-0.001c-0.931 0-1.686 0.68-1.686 1.52v0.001c0 0.839 0.755 1.52 1.686 1.52h0.001c0.931 0 1.686-0.68 1.686-1.52v-0.001c0-0.839-0.755-1.52-1.686-1.52z"></path>
<path d="M17.546 4.399c-0.003-1.166-0.517-2.283-1.432-3.108s-2.153-1.289-3.447-1.291v0c-1.293 0.002-2.533 0.466-3.448 1.291s-1.43 1.942-1.432 3.108v6.429c0 0 9.757-0.98 9.759-6.428v-0.001z"></path>
<path d="M0 12.938c0.002 0.811 0.361 1.589 0.997 2.162s1.498 0.897 2.398 0.899c0.9-0.002 1.761-0.326 2.398-0.899s0.995-1.351 0.997-2.162v-4.473c0 0-6.789 0.682-6.789 4.472zM3.395 13.74c-0.176 0-0.348-0.047-0.494-0.135s-0.26-0.213-0.327-0.36-0.085-0.308-0.051-0.463c0.034-0.155 0.119-0.298 0.243-0.41s0.283-0.188 0.455-0.219c0.172-0.031 0.351-0.015 0.514 0.046s0.301 0.163 0.399 0.295c0.098 0.132 0.15 0.287 0.15 0.445 0 0.106-0.022 0.21-0.067 0.308s-0.11 0.186-0.192 0.261c-0.083 0.075-0.181 0.134-0.289 0.175s-0.224 0.061-0.341 0.061v-0.003z"></path>
<path d="M9.603 12.299v1.665h-0.343v-1.665h0.343zM10.267 13.010v0.268h-0.757v-0.268h0.757zM10.347 12.299v0.269h-0.837v-0.269h0.837zM11.913 13.092v0.079c0 0.127-0.017 0.24-0.051 0.341s-0.083 0.186-0.145 0.257c-0.062 0.070-0.137 0.124-0.224 0.161s-0.182 0.056-0.287 0.056c-0.104 0-0.2-0.019-0.287-0.056s-0.161-0.091-0.224-0.161c-0.063-0.071-0.112-0.157-0.147-0.257s-0.051-0.214-0.051-0.341v-0.079c0-0.127 0.017-0.241 0.051-0.341s0.083-0.186 0.145-0.257c0.063-0.071 0.138-0.125 0.224-0.162s0.183-0.056 0.287-0.056c0.105 0 0.201 0.019 0.287 0.056s0.162 0.091 0.224 0.162c0.063 0.071 0.112 0.157 0.146 0.257s0.053 0.213 0.053 0.341zM11.567 13.171v-0.081c0-0.088-0.008-0.166-0.024-0.233s-0.040-0.123-0.071-0.169-0.069-0.080-0.114-0.103c-0.045-0.024-0.096-0.035-0.154-0.035s-0.109 0.012-0.154 0.035c-0.044 0.023-0.082 0.057-0.113 0.103s-0.054 0.102-0.070 0.169c-0.016 0.067-0.024 0.145-0.024 0.233v0.081c0 0.088 0.008 0.165 0.024 0.233s0.040 0.124 0.071 0.17c0.031 0.046 0.069 0.080 0.114 0.104s0.096 0.035 0.154 0.035c0.058 0 0.109-0.012 0.154-0.035s0.083-0.058 0.113-0.104c0.031-0.046 0.054-0.103 0.070-0.17s0.024-0.146 0.024-0.233zM13.027 13.528c0-0.030-0.005-0.056-0.014-0.080s-0.024-0.047-0.048-0.066c-0.024-0.021-0.057-0.041-0.099-0.061s-0.098-0.040-0.166-0.062c-0.075-0.024-0.147-0.052-0.215-0.082s-0.127-0.066-0.178-0.106c-0.051-0.041-0.091-0.089-0.121-0.143s-0.043-0.117-0.043-0.189c0-0.069 0.015-0.132 0.046-0.189s0.073-0.106 0.128-0.146c0.055-0.041 0.12-0.073 0.194-0.095s0.158-0.033 0.248-0.033c0.123 0 0.23 0.022 0.321 0.066s0.162 0.105 0.213 0.182c0.051 0.077 0.077 0.165 0.077 0.264h-0.341c0-0.049-0.010-0.091-0.031-0.128s-0.050-0.067-0.091-0.088c-0.040-0.021-0.091-0.032-0.153-0.032-0.059 0-0.109 0.009-0.149 0.027s-0.069 0.042-0.089 0.072c-0.020 0.030-0.030 0.063-0.030 0.101 0 0.028 0.007 0.054 0.021 0.077s0.036 0.044 0.064 0.064 0.063 0.039 0.104 0.056c0.041 0.018 0.089 0.035 0.143 0.051 0.091 0.027 0.17 0.058 0.239 0.093s0.127 0.073 0.174 0.115c0.047 0.043 0.082 0.091 0.105 0.145s0.035 0.115 0.035 0.184c0 0.072-0.014 0.137-0.042 0.194s-0.069 0.106-0.122 0.145c-0.053 0.040-0.117 0.070-0.191 0.090s-0.157 0.031-0.248 0.031c-0.082 0-0.163-0.011-0.244-0.032s-0.153-0.055-0.218-0.099c-0.065-0.044-0.117-0.101-0.155-0.169s-0.058-0.15-0.058-0.244h0.344c0 0.052 0.008 0.096 0.024 0.131s0.038 0.065 0.067 0.087c0.030 0.022 0.065 0.038 0.105 0.048s0.086 0.015 0.135 0.015c0.059 0 0.108-0.008 0.146-0.025s0.067-0.040 0.086-0.070c0.019-0.030 0.029-0.063 0.029-0.101zM14.347 12.299v1.665h-0.342v-1.665h0.342zM14.859 12.299v0.269h-1.358v-0.269h1.358zM16.172 13.696v0.268h-0.886v-0.268h0.886zM15.398 12.299v1.665h-0.343v-1.665h0.343zM16.056 12.976v0.261h-0.771v-0.261h0.771zM16.171 12.299v0.269h-0.885v-0.269h0.885zM16.372 12.299h0.621c0.127 0 0.237 0.019 0.328 0.057s0.163 0.095 0.213 0.169 0.074 0.167 0.074 0.276c0 0.089-0.015 0.166-0.046 0.23s-0.072 0.116-0.127 0.159c-0.054 0.042-0.118 0.075-0.191 0.101l-0.109 0.057h-0.54l-0.002-0.268h0.401c0.060 0 0.11-0.011 0.15-0.032s0.069-0.051 0.089-0.089c0.021-0.038 0.031-0.082 0.031-0.133 0-0.053-0.010-0.099-0.030-0.138s-0.050-0.069-0.090-0.089-0.091-0.031-0.152-0.031h-0.278v1.396h-0.343v-1.665zM17.302 13.963l-0.38-0.742 0.362-0.002 0.384 0.728v0.016h-0.367zM19.103 13.37h-0.424v-0.268h0.424c0.066 0 0.119-0.011 0.16-0.032s0.071-0.053 0.090-0.091c0.019-0.039 0.029-0.083 0.029-0.131s-0.010-0.096-0.029-0.138c-0.019-0.043-0.049-0.077-0.090-0.103s-0.095-0.039-0.16-0.039h-0.305v1.396h-0.343v-1.665h0.648c0.13 0 0.242 0.024 0.335 0.071s0.165 0.111 0.215 0.193c0.050 0.082 0.074 0.176 0.074 0.282 0 0.107-0.025 0.2-0.074 0.279s-0.121 0.139-0.215 0.182c-0.093 0.043-0.205 0.064-0.335 0.064zM21.081 13.696v0.268h-0.886v-0.268h0.886zM20.307 12.299v1.665h-0.343v-1.665h0.343zM20.965 12.976v0.261h-0.771v-0.261h0.771zM21.080 12.299v0.269h-0.885v-0.269h0.885zM22.048 12.299v1.665h-0.342v-1.665h0.342zM22.56 12.299v0.269h-1.358v-0.269h1.358zM23.873 13.696v0.268h-0.886v-0.268h0.886zM23.099 12.299v1.665h-0.343v-1.665h0.343zM23.757 12.976v0.261h-0.771v-0.261h0.771zM23.872 12.299v0.269h-0.885v-0.269h0.885zM24.073 12.299h0.621c0.127 0 0.237 0.019 0.328 0.057s0.163 0.095 0.213 0.169c0.050 0.075 0.074 0.167 0.074 0.276 0 0.089-0.015 0.166-0.046 0.23s-0.072 0.116-0.127 0.159c-0.054 0.042-0.118 0.075-0.191 0.101l-0.109 0.057h-0.54l-0.002-0.268h0.401c0.060 0 0.11-0.011 0.15-0.032s0.069-0.051 0.089-0.089c0.021-0.038 0.031-0.082 0.031-0.133 0-0.053-0.010-0.099-0.030-0.138s-0.050-0.069-0.090-0.089c-0.040-0.021-0.091-0.031-0.152-0.031h-0.278v1.396h-0.343v-1.665zM25.004 13.963l-0.38-0.742 0.362-0.002 0.384 0.728v0.016h-0.367zM26.44 13.528c0-0.030-0.005-0.056-0.014-0.080s-0.024-0.047-0.048-0.066c-0.024-0.021-0.057-0.041-0.099-0.061s-0.098-0.040-0.166-0.062c-0.075-0.024-0.147-0.052-0.215-0.082s-0.127-0.066-0.178-0.106c-0.051-0.041-0.091-0.089-0.121-0.143s-0.043-0.117-0.043-0.189c0-0.069 0.015-0.132 0.046-0.189s0.073-0.106 0.128-0.146c0.055-0.041 0.12-0.073 0.194-0.095s0.158-0.033 0.248-0.033c0.123 0 0.23 0.022 0.321 0.066s0.162 0.105 0.213 0.182c0.051 0.077 0.077 0.165 0.077 0.264h-0.341c0-0.049-0.010-0.091-0.031-0.128s-0.050-0.067-0.091-0.088c-0.040-0.021-0.091-0.032-0.153-0.032-0.059 0-0.109 0.009-0.149 0.027s-0.069 0.042-0.089 0.072c-0.020 0.030-0.030 0.063-0.030 0.101 0 0.028 0.007 0.054 0.021 0.077s0.036 0.044 0.064 0.064 0.063 0.039 0.104 0.056c0.041 0.018 0.089 0.035 0.143 0.051 0.091 0.027 0.17 0.058 0.239 0.093s0.127 0.073 0.174 0.115c0.047 0.043 0.082 0.091 0.105 0.145s0.035 0.115 0.035 0.184c0 0.072-0.014 0.137-0.042 0.194s-0.069 0.106-0.122 0.145c-0.053 0.040-0.117 0.070-0.191 0.090s-0.157 0.031-0.248 0.031c-0.082 0-0.163-0.011-0.244-0.032s-0.153-0.055-0.218-0.099c-0.065-0.044-0.117-0.101-0.155-0.169s-0.058-0.15-0.058-0.244h0.344c0 0.052 0.008 0.096 0.024 0.131s0.038 0.065 0.067 0.087c0.030 0.022 0.065 0.038 0.105 0.048s0.086 0.015 0.135 0.015c0.059 0 0.108-0.008 0.146-0.025s0.067-0.040 0.086-0.070c0.019-0.030 0.029-0.063 0.029-0.101z"></path>
</symbol>
<symbol id="icon-object" viewBox="0 0 17 16">
<path d="M2.657 15.697c0.006 0 0.012 0.001 0.018 0.004s0.011 0.005 0.015 0.009l0.086 0.081c-0.067 0.066-0.15 0.118-0.242 0.154-0.109 0.039-0.226 0.058-0.344 0.055-0.111 0.002-0.221-0.016-0.323-0.052-0.092-0.033-0.175-0.083-0.243-0.145-0.069-0.065-0.123-0.142-0.157-0.225-0.038-0.093-0.056-0.19-0.055-0.288-0.002-0.099 0.019-0.197 0.059-0.289 0.038-0.084 0.094-0.16 0.167-0.225 0.074-0.063 0.162-0.113 0.259-0.146 0.106-0.035 0.219-0.053 0.333-0.052 0.106-0.002 0.211 0.014 0.309 0.047 0.085 0.032 0.164 0.076 0.232 0.13l-0.072 0.087c-0.005 0.006-0.011 0.011-0.018 0.016-0.009 0.005-0.019 0.007-0.029 0.006s-0.022-0.004-0.031-0.009l-0.039-0.023-0.054-0.029c-0.023-0.011-0.047-0.020-0.072-0.029-0.032-0.010-0.065-0.017-0.098-0.023-0.042-0.007-0.085-0.010-0.128-0.009-0.082-0.001-0.163 0.012-0.239 0.039-0.071 0.024-0.135 0.061-0.187 0.109-0.054 0.050-0.095 0.109-0.122 0.173-0.030 0.073-0.045 0.151-0.044 0.228-0.001 0.079 0.014 0.157 0.044 0.232 0.026 0.063 0.067 0.122 0.12 0.172 0.049 0.047 0.111 0.083 0.179 0.107 0.070 0.025 0.146 0.037 0.222 0.037 0.044 0.001 0.088-0.002 0.131-0.007 0.071-0.007 0.139-0.028 0.199-0.062 0.030-0.017 0.059-0.036 0.085-0.057 0.011-0.009 0.026-0.014 0.041-0.015z"></path>
<path d="M5.146 15.29c0.001 0.098-0.018 0.195-0.058 0.286-0.035 0.083-0.090 0.159-0.162 0.222s-0.159 0.113-0.255 0.146c-0.211 0.069-0.444 0.069-0.655 0-0.095-0.033-0.182-0.083-0.253-0.146-0.072-0.065-0.128-0.141-0.164-0.225-0.078-0.185-0.078-0.388 0-0.573 0.037-0.084 0.092-0.16 0.164-0.225 0.072-0.061 0.158-0.109 0.253-0.141 0.211-0.070 0.444-0.070 0.655 0 0.096 0.033 0.182 0.083 0.254 0.146 0.071 0.064 0.126 0.139 0.163 0.222 0.040 0.092 0.060 0.19 0.058 0.288zM4.92 15.29c0.002-0.078-0.012-0.156-0.041-0.23-0.024-0.064-0.063-0.122-0.115-0.172-0.051-0.047-0.113-0.084-0.182-0.109-0.153-0.050-0.323-0.050-0.476 0-0.069 0.024-0.132 0.061-0.182 0.109-0.053 0.050-0.092 0.108-0.116 0.172-0.055 0.15-0.055 0.31 0 0.46 0.024 0.064 0.064 0.122 0.116 0.172 0.051 0.047 0.113 0.084 0.182 0.108 0.153 0.049 0.323 0.049 0.476 0 0.069-0.024 0.131-0.061 0.182-0.108 0.052-0.050 0.091-0.109 0.115-0.172 0.029-0.074 0.043-0.152 0.041-0.23z"></path>
<path d="M6.844 15.531l0.023 0.052c0.009-0.018 0.016-0.035 0.025-0.052s0.018-0.034 0.028-0.051l0.55-0.855c0.011-0.015 0.020-0.024 0.031-0.027 0.015-0.004 0.030-0.005 0.045-0.005h0.163v1.391h-0.193v-1.022c0-0.013 0-0.028 0-0.043-0.001-0.016-0.001-0.032 0-0.048l-0.554 0.867c-0.007 0.013-0.018 0.024-0.032 0.032s-0.031 0.012-0.047 0.012h-0.031c-0.017 0-0.033-0.004-0.047-0.011s-0.025-0.019-0.032-0.032l-0.57-0.872c0 0.017 0 0.033 0 0.050s0 0.031 0 0.044v1.022h-0.186v-1.388h0.163c0.015-0.001 0.031 0.001 0.045 0.005 0.013 0.006 0.024 0.015 0.030 0.027l0.562 0.856c0.011 0.016 0.020 0.032 0.028 0.050z"></path>
<path d="M8.915 15.462v0.521h-0.215v-1.389h0.48c0.091-0.001 0.181 0.009 0.268 0.030 0.070 0.017 0.134 0.046 0.19 0.087 0.048 0.038 0.085 0.084 0.108 0.136 0.025 0.057 0.038 0.117 0.037 0.178 0.001 0.061-0.013 0.121-0.040 0.178-0.026 0.053-0.066 0.101-0.116 0.139-0.055 0.042-0.12 0.073-0.191 0.092-0.084 0.023-0.172 0.034-0.26 0.032l-0.261-0.004zM8.915 15.313h0.261c0.057 0.001 0.113-0.007 0.167-0.021 0.045-0.013 0.086-0.033 0.121-0.060 0.032-0.025 0.057-0.057 0.073-0.092 0.018-0.037 0.026-0.077 0.026-0.117 0.003-0.039-0.005-0.077-0.022-0.113s-0.042-0.068-0.075-0.095c-0.082-0.055-0.186-0.081-0.29-0.075h-0.261v0.572z"></path>
<path d="M11.811 15.985h-0.17c-0.017 0.001-0.034-0.004-0.047-0.013-0.012-0.009-0.022-0.020-0.028-0.032l-0.146-0.336h-0.736l-0.152 0.336c-0.006 0.012-0.015 0.023-0.027 0.031-0.014 0.009-0.031 0.014-0.048 0.014h-0.17l0.646-1.391h0.224l0.655 1.391zM10.744 15.469h0.608l-0.256-0.566c-0.020-0.043-0.036-0.086-0.048-0.131l-0.025 0.073c-0.008 0.022-0.016 0.042-0.024 0.059l-0.254 0.565z"></path>
<path d="M12.741 14.601c0.013 0.006 0.024 0.015 0.032 0.025l0.943 1.048c0-0.017 0-0.033 0-0.049s0-0.031 0-0.046v-0.985h0.193v1.391h-0.108c-0.015 0-0.030-0.002-0.044-0.008s-0.025-0.015-0.034-0.026l-0.941-1.047c0.001 0.016 0.001 0.032 0 0.048 0 0.016 0 0.029 0 0.042v0.991h-0.193v-1.391h0.114c0.013-0 0.027 0.002 0.039 0.006z"></path>
<path d="M15.497 15.432v0.552h-0.215v-0.552l-0.596-0.838h0.193c0.017-0.001 0.033 0.003 0.046 0.012 0.012 0.009 0.022 0.020 0.029 0.031l0.373 0.54c0.015 0.023 0.028 0.044 0.039 0.064s0.019 0.040 0.027 0.059l0.028-0.060c0.010-0.022 0.023-0.043 0.037-0.064l0.367-0.544c0.008-0.011 0.017-0.021 0.028-0.029 0.013-0.010 0.029-0.014 0.046-0.014h0.195l-0.597 0.841z"></path>
<path d="M6.737 12.26c0.094 0.010 0.188 0.018 0.284 0.026 1.454-0.556 2.683-1.465 3.535-2.614s1.289-2.488 1.255-3.848l-1.602-1.369c0.326 1.448 0.173 2.945-0.44 4.324s-1.663 2.584-3.033 3.481z"></path>
<path d="M6.165 12.197l0.043 0.007c1.463-0.894 2.579-2.143 3.203-3.585s0.727-3.011 0.296-4.503l-2.282-1.949c0.923 1.602 1.294 3.395 1.071 5.171s-1.032 3.461-2.331 4.859z"></path>
<path d="M13.902 7.431c-0.388 1.494-1.329 2.842-2.684 3.843-0.396 0.294-0.823 0.556-1.275 0.782 1.104-0.277 2.118-0.767 2.965-1.432s1.504-1.487 1.92-2.404l-0.925-0.79z"></path>
<path d="M13.539 7.211l-1.317-1.126c-0.025 1.283-0.452 2.537-1.237 3.632s-1.898 1.99-3.224 2.592h0.006c0.296-0 0.591-0.015 0.884-0.045 1.24-0.432 2.335-1.12 3.187-2.002s1.437-1.93 1.7-3.052z"></path>
<path d="M6.356 1.345l-1.572-1.345c-1.405 0.464-2.613 1.279-3.467 2.34s-1.313 2.316-1.317 3.603v0c0.005 1.422 0.565 2.802 1.592 3.921s2.461 1.914 4.075 2.259c1.441-1.501 2.285-3.355 2.409-5.293s-0.479-3.86-1.721-5.486z"></path>
<path d="M17.171 7.004c-0.006-1.687-0.793-3.304-2.189-4.497s-3.289-1.865-5.263-1.87c-0.912-0.001-1.817 0.143-2.668 0.424l9.623 8.222c0.329-0.727 0.498-1.499 0.498-2.279z"></path>
</symbol>
<symbol id="icon-object-company" viewBox="0 0 33 16">
<path d="M16.899 7.624c-0.158-0.21-0.233-0.458-0.215-0.708v-1.027c0-0.315 0.071-0.554 0.214-0.718s0.388-0.245 0.736-0.244c0.327 0 0.559 0.070 0.696 0.209 0.15 0.178 0.222 0.395 0.206 0.614v0.241h-0.585v-0.244c0.002-0.080-0.004-0.16-0.017-0.239-0.008-0.054-0.038-0.104-0.084-0.142-0.060-0.041-0.136-0.061-0.212-0.055-0.080-0.005-0.16 0.016-0.223 0.058-0.051 0.042-0.085 0.097-0.097 0.157-0.017 0.084-0.024 0.169-0.023 0.254v1.246c-0.009 0.12 0.017 0.241 0.075 0.35 0.029 0.037 0.069 0.066 0.117 0.085s0.099 0.025 0.151 0.020c0.075 0.005 0.149-0.015 0.207-0.056 0.048-0.041 0.078-0.094 0.087-0.151 0.014-0.083 0.020-0.166 0.018-0.25v-0.253h0.585v0.231c0.016 0.228-0.055 0.455-0.202 0.646-0.134 0.152-0.363 0.229-0.7 0.229s-0.591-0.081-0.735-0.251z"></path>
<path d="M19.334 7.635c-0.148-0.16-0.222-0.393-0.222-0.701v-1.080c0-0.305 0.074-0.536 0.222-0.693s0.395-0.235 0.741-0.234c0.344 0 0.59 0.078 0.737 0.234s0.223 0.388 0.223 0.693v1.080c0 0.305-0.075 0.539-0.225 0.7s-0.395 0.241-0.735 0.241-0.592-0.081-0.741-0.24zM20.347 7.376c0.053-0.1 0.077-0.21 0.070-0.32v-1.322c0.007-0.108-0.017-0.215-0.069-0.313-0.030-0.038-0.071-0.068-0.119-0.086s-0.102-0.025-0.154-0.018c-0.053-0.006-0.106 0-0.155 0.019s-0.090 0.048-0.12 0.086c-0.053 0.098-0.077 0.206-0.070 0.313v1.329c-0.007 0.11 0.017 0.22 0.070 0.32 0.034 0.034 0.076 0.061 0.123 0.079s0.098 0.028 0.15 0.028 0.103-0.010 0.15-0.028c0.047-0.019 0.089-0.046 0.123-0.079v-0.006z"></path>
<path d="M21.738 4.959h0.63l0.473 1.993 0.484-1.993h0.613l0.062 2.877h-0.453l-0.048-1.999-0.467 1.999h-0.363l-0.484-2.007-0.045 2.007h-0.458l0.057-2.877z"></path>
<path d="M24.705 4.959h0.981c0.565 0 0.847 0.272 0.847 0.817 0 0.522-0.297 0.782-0.892 0.781h-0.334v1.279h-0.605l0.004-2.877zM25.543 6.188c0.060 0.007 0.121 0.002 0.178-0.014s0.11-0.042 0.155-0.077c0.069-0.097 0.1-0.211 0.087-0.325 0.003-0.088-0.007-0.175-0.029-0.261-0.009-0.029-0.024-0.055-0.045-0.079s-0.047-0.043-0.077-0.058c-0.084-0.035-0.177-0.051-0.27-0.046h-0.235v0.86h0.235z"></path>
<path d="M27.406 4.959h0.65l0.667 2.877h-0.564l-0.132-0.663h-0.58l-0.136 0.663h-0.573l0.667-2.877zM27.961 6.839l-0.226-1.207-0.226 1.207h0.453z"></path>
<path d="M29.262 4.959h0.424l0.811 1.641v-1.641h0.502v2.877h-0.403l-0.816-1.713v1.713h-0.519l0.001-2.877z"></path>
<path d="M32.175 6.738l-0.674-1.776h0.568l0.412 1.141 0.386-1.141h0.556l-0.666 1.776v1.097h-0.581v-1.097z"></path>
<path d="M17.834 9.093v0.15h-0.494v1.169h-0.207v-1.169h-0.496v-0.15h1.197z"></path>
<path d="M19.382 10.412h-0.16c-0.016 0.001-0.032-0.004-0.045-0.013-0.012-0.008-0.021-0.018-0.027-0.030l-0.143-0.313h-0.685l-0.143 0.313c-0.004 0.013-0.011 0.025-0.022 0.036-0.013 0.009-0.029 0.013-0.045 0.013h-0.16l0.605-1.319h0.211l0.613 1.314zM18.38 9.922h0.571l-0.242-0.537c-0.018-0.041-0.033-0.082-0.045-0.124-0.008 0.025-0.016 0.049-0.023 0.070l-0.022 0.055-0.24 0.536z"></path>
<path d="M20.426 10.283c0.038 0.002 0.076 0.002 0.114 0 0.033-0.003 0.065-0.008 0.097-0.016 0.030-0.006 0.059-0.014 0.087-0.024 0.027-0.009 0.053-0.021 0.081-0.032v-0.297h-0.242c-0.006 0-0.012-0.001-0.018-0.002s-0.011-0.005-0.015-0.008c-0.004-0.003-0.007-0.007-0.009-0.011s-0.003-0.009-0.003-0.013v-0.101h0.47v0.506c-0.038 0.024-0.079 0.045-0.121 0.063s-0.088 0.033-0.134 0.045c-0.049 0.013-0.1 0.022-0.151 0.027-0.059 0.006-0.118 0.008-0.177 0.008-0.104 0.001-0.208-0.016-0.305-0.049-0.091-0.031-0.173-0.078-0.242-0.138-0.067-0.060-0.12-0.131-0.156-0.209-0.038-0.087-0.057-0.18-0.056-0.274-0.001-0.094 0.017-0.187 0.054-0.276 0.035-0.078 0.088-0.149 0.156-0.209s0.151-0.106 0.242-0.137c0.104-0.034 0.214-0.050 0.324-0.049 0.056-0 0.113 0.004 0.168 0.011 0.049 0.007 0.098 0.018 0.144 0.033 0.042 0.014 0.083 0.031 0.121 0.052 0.037 0.021 0.072 0.044 0.105 0.069l-0.058 0.082c-0.005 0.007-0.011 0.014-0.020 0.018s-0.018 0.007-0.028 0.007c-0.013-0-0.026-0.004-0.038-0.010-0.018-0.008-0.038-0.019-0.059-0.031-0.026-0.014-0.053-0.026-0.081-0.036-0.036-0.012-0.073-0.022-0.111-0.029-0.051-0.008-0.102-0.012-0.154-0.011-0.080-0.001-0.159 0.012-0.234 0.037-0.067 0.023-0.128 0.059-0.178 0.104-0.050 0.047-0.088 0.103-0.113 0.164-0.054 0.143-0.054 0.297 0 0.44 0.026 0.062 0.068 0.119 0.121 0.166 0.050 0.045 0.11 0.081 0.177 0.104 0.077 0.023 0.159 0.032 0.24 0.026z"></path>
<path d="M22.355 10.262h0.661v0.15h-0.863v-1.319h0.207l-0.005 1.169z"></path>
<path d="M23.704 10.412h-0.207v-1.319h0.207v1.319z"></path>
<path d="M24.474 9.099c0.012 0.006 0.023 0.014 0.032 0.024l0.885 0.994c-0.001-0.016-0.001-0.031 0-0.047 0-0.015 0-0.029 0-0.043v-0.94h0.18v1.325h-0.104c-0.015 0.001-0.031-0.001-0.045-0.007-0.013-0.007-0.024-0.015-0.033-0.025l-0.884-0.993c0 0.016 0 0.030 0 0.045s0 0.028 0 0.041v0.94h-0.173v-1.319h0.108c0.012 0 0.023 0.002 0.034 0.006z"></path>
<path d="M27.095 9.093v0.145h-0.734v0.436h0.594v0.14h-0.594v0.45h0.734v0.145h-0.947v-1.316h0.947z"></path>
<path d="M5.403 0.945l9.192 2.252v7.892l-9.192-2.251v-7.893zM4.813 0.273v8.949l10.37 2.541v-8.948l-10.37-2.542z"></path>
<path d="M10.371 15.917l-10.371-2.544v-8.948l10.371 2.543v8.949z"></path>
<path d="M4.985 0.844l9.072 2.224-3.858 3.33-9.073-2.225 3.859-3.329zM4.813 0.273l-4.813 4.153 10.371 2.542 4.812-4.153-10.37-2.542z"></path>
<path d="M10.954 15.414l4.228-3.65-4.228-1.037v4.687z"></path>
</symbol>
<symbol id="icon-yaco" viewBox="0 0 14 16">
<path d="M2.043 0l2.386 2.273-4.428-0.003v11.027h11.574v-4.216l2.383 2.27v-11.351h-11.915zM11.47 8.814l-6.764-6.444h6.764v6.444zM9.37 11.684h-7.538v-7.416h0.533v6.914h7.005v0.502zM3.335 15.34l-0.281-0.578h-0.232l0.407 0.765v0.445h0.21v-0.445l0.407-0.765h-0.231l-0.281 0.578zM4.37 14.762h0.050l0.457 1.21h-0.219l-0.098-0.283h-0.468l-0.098 0.283h-0.219l0.455-1.21h0.14zM4.149 15.524h0.354l-0.177-0.513-0.177 0.513zM5.611 15.323c-0.009-0.012-0.018-0.023-0.026-0.034-0.031-0.041-0.055-0.081-0.072-0.119s-0.026-0.079-0.026-0.12c0-0.063 0.013-0.117 0.039-0.163s0.063-0.080 0.111-0.105c0.048-0.025 0.103-0.037 0.167-0.037 0.061 0 0.114 0.012 0.159 0.037s0.079 0.057 0.103 0.097c0.024 0.040 0.037 0.085 0.037 0.133 0 0.038-0.007 0.073-0.021 0.105s-0.033 0.060-0.057 0.086c-0.024 0.026-0.053 0.051-0.085 0.074l-0.084 0.061 0.24 0.283c0.008-0.016 0.015-0.032 0.021-0.049 0.021-0.053 0.031-0.112 0.031-0.177h0.173c0 0.059-0.006 0.114-0.017 0.167s-0.029 0.101-0.054 0.146c-0.010 0.019-0.022 0.036-0.034 0.053l0.177 0.209h-0.232l-0.070-0.083c-0.038 0.029-0.079 0.051-0.124 0.068-0.059 0.021-0.121 0.032-0.188 0.032-0.080 0-0.15-0.015-0.209-0.044s-0.104-0.070-0.136-0.121c-0.032-0.052-0.047-0.111-0.047-0.177 0-0.049 0.010-0.093 0.031-0.13s0.049-0.073 0.084-0.105c0.033-0.030 0.070-0.059 0.112-0.089zM5.71 15.445l-0.025 0.018c-0.029 0.024-0.051 0.047-0.066 0.069s-0.023 0.042-0.027 0.060c-0.004 0.018-0.007 0.034-0.007 0.048 0 0.035 0.007 0.068 0.022 0.096s0.038 0.052 0.067 0.069c0.030 0.017 0.066 0.025 0.109 0.025 0.046 0 0.091-0.010 0.134-0.031 0.022-0.011 0.042-0.023 0.062-0.038l-0.269-0.317zM5.758 15.224l0.074-0.050c0.035-0.023 0.060-0.046 0.075-0.068s0.022-0.051 0.022-0.085c0-0.029-0.011-0.055-0.033-0.080s-0.053-0.037-0.094-0.037c-0.028 0-0.052 0.007-0.071 0.020s-0.034 0.030-0.044 0.052c-0.009 0.021-0.014 0.045-0.014 0.071 0 0.025 0.006 0.051 0.019 0.077s0.030 0.053 0.052 0.082c0.005 0.006 0.009 0.012 0.014 0.018zM7.875 15.578h-0.208c-0.006 0.053-0.019 0.097-0.038 0.134s-0.047 0.063-0.084 0.082c-0.037 0.019-0.085 0.028-0.144 0.028-0.049 0-0.091-0.010-0.126-0.029s-0.064-0.047-0.086-0.082c-0.022-0.035-0.039-0.078-0.050-0.127s-0.016-0.105-0.016-0.166v-0.102c0-0.064 0.006-0.121 0.017-0.171s0.030-0.093 0.054-0.127c0.024-0.034 0.053-0.060 0.089-0.078s0.077-0.027 0.125-0.027c0.058 0 0.105 0.010 0.141 0.030s0.063 0.048 0.081 0.085c0.019 0.037 0.031 0.082 0.037 0.134h0.208c-0.008-0.081-0.031-0.153-0.068-0.215s-0.088-0.112-0.155-0.147c-0.066-0.035-0.148-0.053-0.244-0.053-0.076 0-0.144 0.013-0.205 0.040s-0.112 0.065-0.155 0.116c-0.043 0.050-0.076 0.11-0.1 0.18s-0.034 0.149-0.034 0.236v0.101c0 0.087 0.011 0.166 0.033 0.236s0.055 0.13 0.098 0.18c0.043 0.049 0.094 0.088 0.154 0.115s0.127 0.040 0.202 0.040c0.098 0 0.18-0.018 0.249-0.053s0.121-0.084 0.159-0.145c0.038-0.062 0.060-0.133 0.066-0.212zM9.030 15.401v-0.066c0-0.091-0.012-0.173-0.037-0.245s-0.058-0.134-0.102-0.185c-0.044-0.052-0.097-0.091-0.159-0.117s-0.13-0.041-0.204-0.041c-0.074 0-0.142 0.014-0.204 0.041s-0.114 0.066-0.159 0.117c-0.044 0.051-0.079 0.113-0.103 0.185s-0.037 0.154-0.037 0.245v0.066c0 0.091 0.012 0.173 0.037 0.246s0.060 0.134 0.105 0.185c0.045 0.051 0.098 0.090 0.159 0.117s0.129 0.040 0.204 0.040c0.075 0 0.143-0.013 0.204-0.040s0.114-0.066 0.158-0.117c0.044-0.051 0.078-0.113 0.102-0.185s0.036-0.155 0.036-0.246zM8.821 15.332v0.068c0 0.068-0.007 0.127-0.020 0.18s-0.032 0.096-0.057 0.132c-0.025 0.035-0.055 0.062-0.091 0.081s-0.077 0.027-0.124 0.027c-0.046 0-0.087-0.009-0.123-0.027s-0.067-0.045-0.093-0.081c-0.025-0.036-0.045-0.080-0.058-0.132s-0.020-0.112-0.020-0.18v-0.068c0-0.068 0.007-0.127 0.020-0.179s0.032-0.096 0.057-0.13c0.025-0.035 0.056-0.062 0.092-0.080s0.077-0.027 0.123-0.027 0.087 0.009 0.124 0.027c0.037 0.018 0.067 0.044 0.092 0.080s0.045 0.078 0.057 0.13c0.013 0.052 0.020 0.111 0.020 0.179z"></path>
</symbol>
<symbol id="icon-antennas" viewBox="0 0 16 16">
<path fill="#2e2f42" style="fill: var(--color2, #2e2f42)" d="M15.386 11.049l-4.222-4.253 0.469-2.308c0.121 0.047 0.249 0.072 0.379 0.072h0.003c0.004 0 0.008 0 0.013 0 0.596 0 1.079-0.483 1.079-1.079s-0.483-1.079-1.079-1.079c-0.596 0-1.079 0.483-1.079 1.079 0 0.13 0.023 0.254 0.065 0.369l-0.002-0.007-2.48 0.303-4.045-4.066c-0.048-0.049-0.114-0.079-0.188-0.080h-0c-0.070 0-0.137 0.028-0.187 0.077l-0.756 0.752c-0.048 0.048-0.078 0.115-0.078 0.189s0.030 0.14 0.078 0.189v0l0.407 0.412c-0.571 1.031-0.908 2.261-0.908 3.569 0 2.053 0.828 3.912 2.168 5.263l-0-0c0.021 0.020 0.046 0.037 0.073 0.049-0.016 0.082-0.025 0.176-0.026 0.273v3.094h-3.2c-0.736 0.001-1.333 0.597-1.334 1.333v0.533c0 0.148 0.119 0.267 0.267 0.267h12.267c0.147 0 0.267-0.12 0.267-0.267v-0.533c-0.001-0.736-0.597-1.332-1.333-1.333h-3.2v-1.371c0.501 0.105 1.012 0.159 1.524 0.16 1.29-0.001 2.502-0.332 3.559-0.911l-0.039 0.019 0.409 0.412c0.050 0.050 0.117 0.079 0.188 0.080 0.070-0.001 0.137-0.028 0.187-0.078l0.756-0.752c0.048-0.048 0.078-0.115 0.078-0.188s-0.030-0.14-0.078-0.188v0zM11.64 3.116c0.096-0.096 0.229-0.155 0.376-0.155 0.294 0 0.533 0.239 0.533 0.533s-0.239 0.533-0.533 0.533c-0 0-0 0-0 0h-0.002c-0.293-0.001-0.531-0.24-0.531-0.533 0-0.148 0.060-0.282 0.157-0.378l0-0h-0.001zM11.012 4.869l-0.299 1.473-0.588-0.591 0.887-0.882zM10.709 4.418l-0.96 0.954-0.742-0.747 1.703-0.207zM12.002 14.4c0.442 0 0.8 0.358 0.8 0.8v0 0.267h-11.733v-0.267c0-0.442 0.358-0.8 0.8-0.8h10.133zM8.269 13.333v0.534h-2.667v-0.534h2.667zM5.602 12.8v-2.027c0-0.647 0.598-1.173 1.333-1.173s1.334 0.527 1.334 1.173v2.027h-2.667zM8.802 11.952v-1.179c0-0.941-0.838-1.707-1.867-1.707-0.009-0-0.019-0-0.029-0-0.676 0-1.27 0.353-1.607 0.885l-0.005 0.008c-1.18-1.241-1.906-2.923-1.906-4.775 0-1.157 0.283-2.248 0.785-3.207l-0.018 0.038 9.301 9.354c-0.911 0.473-1.99 0.751-3.133 0.751-0.539 0-1.064-0.062-1.568-0.179l0.047 0.009zM14.447 11.61l-10.528-10.59 0.378-0.376 3.968 3.99c0.002 0 0.003 0.003 0.005 0.005l6.557 6.596-0.379 0.376z"></path>
<path fill="#4d5ae5" style="fill: var(--color1, #4d5ae5)" d="M6.938 10.133h-0.003c-0 0-0.001 0-0.001 0-0.442 0-0.8 0.358-0.8 0.8s0.357 0.799 0.799 0.8h0.003c0 0 0.001 0 0.001 0 0.442 0 0.8-0.358 0.8-0.8s-0.357-0.799-0.799-0.8h-0zM7.125 11.123c-0.048 0.048-0.115 0.077-0.188 0.077-0.147 0-0.267-0.119-0.267-0.267 0-0 0-0.001 0-0.001v0c0.001-0.146 0.119-0.264 0.265-0.265h0c0.147 0.001 0.265 0.12 0.265 0.267 0 0.074-0.030 0.141-0.079 0.189l-0 0h0.003z"></path>
</symbol>
<symbol id="icon-astronauts" viewBox="0 0 16 16">
<path fill="#4d5ae5" style="fill: var(--color1, #4d5ae5)" d="M15.987 2.262c-0.032-0.095-0.114-0.166-0.214-0.181l-0.001-0-0.956-0.139-0.428-0.866c-0.089-0.182-0.388-0.182-0.478 0l-0.428 0.865-0.955 0.139c-0.13 0.019-0.228 0.13-0.228 0.264 0 0.075 0.031 0.142 0.080 0.191l0.691 0.674-0.163 0.952c-0.002 0.013-0.004 0.028-0.004 0.044 0 0.148 0.12 0.267 0.267 0.267 0.045 0 0.088-0.011 0.125-0.031l-0.001 0.001 0.854-0.449 0.854 0.449c0.036 0.019 0.078 0.030 0.124 0.030 0.147 0 0.267-0.12 0.267-0.267 0-0.016-0.001-0.031-0.004-0.046l0 0.002-0.163-0.952 0.691-0.674c0.050-0.049 0.080-0.116 0.080-0.191 0-0.029-0.005-0.058-0.014-0.084l0.001 0.002zM14.755 2.925c-0.063 0.061-0.091 0.15-0.076 0.236l0.095 0.557-0.5-0.263c-0.036-0.019-0.079-0.031-0.124-0.031s-0.088 0.011-0.126 0.031l0.001-0.001-0.5 0.263 0.095-0.557c0.002-0.014 0.004-0.029 0.004-0.045 0-0.075-0.031-0.142-0.080-0.191l-0.405-0.395 0.559-0.081c0.087-0.013 0.162-0.067 0.201-0.146l0.25-0.506 0.251 0.506c0.039 0.079 0.114 0.134 0.201 0.146l0.559 0.081-0.405 0.395zM13.067 10.261h-0.534v0.534h0.534v-0.534zM13.067 11.328h-0.534v0.534h0.534v-0.534z"></path>
<path fill="#4d5ae5" style="fill: var(--color1, #4d5ae5)" d="M13.6 10.794h-0.533v0.533h0.533v-0.533zM12.534 10.794h-0.534v0.533h0.534v-0.533zM11.2 13.194h-0.533v0.533h0.533v-0.533zM11.2 14.261h-0.533v0.533h0.533v-0.533zM11.733 13.728h-0.534v0.534h0.534v-0.534z"></path>
<path fill="#4d5ae5" style="fill: var(--color1, #4d5ae5)" d="M10.667 13.728h-0.534v0.534h0.534v-0.534zM8 12.128h-0.533v0.534h0.533v-0.534zM8 13.194h-0.533v0.533h0.533v-0.533zM8.533 12.661h-0.533v0.533h0.533v-0.533zM7.467 12.661h-0.534v0.533h0.534v-0.533zM2.933 3.061h-0.533v0.533h0.533v-0.533zM2.933 4.128h-0.533v0.534h0.533v-0.533zM3.466 3.594h-0.533v0.533h0.533v-0.534zM2.4 3.594h-0.534v0.533h0.534v-0.534z"></path>
<path fill="#2e2f42" style="fill: var(--color2, #2e2f42)" d="M12.357 7.080c-0.14-0.188-0.349-0.318-0.59-0.352l-0.005-0.001c-0.038-0.006-0.082-0.009-0.127-0.009-0.205 0-0.395 0.070-0.545 0.187l0.002-0.002-0.626 0.48-0.949 0.709-0.679-0.271c1.21-0.543 2.057-1.754 2.057-3.16 0-1.912-1.561-3.466-3.481-3.466s-3.481 1.555-3.481 3.466c0 0.693 0.207 1.337 0.56 1.879l-1.385-0.012c-0.004 0-0.007 0.002-0.012 0.003-0.028 0.001-0.055 0.007-0.079 0.016l0.002-0.001c-0.006 0.003-0.013 0.004-0.019 0.007-0.003 0.001-0.006 0.002-0.010 0.003l-1.617 0.798-0.947 0.455c-0.012 0.005-0.022 0.011-0.032 0.018l0.001-0c-0.241 0.162-0.397 0.433-0.397 0.741 0 0.148 0.036 0.288 0.1 0.411l-0.002-0.005c0.11 0.214 0.297 0.373 0.528 0.445 0.080 0.026 0.173 0.042 0.269 0.042 0.154 0 0.299-0.039 0.425-0.108l-0.005 0.002 0.694-0.369 1.132-0.585 0.679-0.004-2.721 2.707c0 0.001-0 0.001-0.001 0.001l-0.669 0.666c-0.151 0.15-0.245 0.357-0.245 0.586 0 0.001 0 0.002 0 0.003v-0c0.001 0.46 0.373 0.832 0.833 0.832 0.001 0 0.001 0 0.002 0h-0c0.214 0 0.427-0.081 0.59-0.242l0.657-0.654 0.87-0.65 0.45 0.448-1.551 1.544c-0.151 0.15-0.245 0.357-0.245 0.587 0 0.001 0 0.002 0 0.002v-0c0 0.223 0.087 0.432 0.245 0.589 0.163 0.162 0.376 0.242 0.59 0.242 0 0 0.001 0 0.002 0 0.23 0 0.437-0.093 0.588-0.243l-0 0 1.741-1.733c0-0.001 0-0.001 0-0.001l0.505-0.5-0.002-0.002c0.003-0.003 0.008-0.004 0.011-0.008l2.583-2.829 1.736 0.247c0.010 0.001 0.022 0.002 0.034 0.002 0.035 0 0.069-0.007 0.099-0.019l-0.002 0.001c0.009-0.003 0.017-0.008 0.025-0.012s0.020-0.008 0.028-0.014l1.607-1.067c0.006-0.004 0.009-0.010 0.015-0.015s0.014-0.007 0.020-0.012l0.636-0.596c0.174-0.163 0.282-0.394 0.282-0.65 0-0.2-0.066-0.385-0.178-0.534l0.002 0.002zM1.065 8.885c-0.087 0.046-0.185 0.056-0.279 0.026-0.147-0.046-0.252-0.182-0.252-0.342 0-0.118 0.057-0.223 0.145-0.288l0.001-0.001 0.657-0.316 0.158 0.462 0.067 0.194-0.496 0.264zM2.814 7.971l-0.774 0.4-0.127-0.373-0.092-0.268 1.013-0.5-0.020 0.742zM10.364 4.661c0 0.459-0.11 0.893-0.3 1.28l-2.091-0.95c-0.022-0.288-0.171-0.536-0.391-0.692l-0.003-0.002 0.732-2.43c1.189 0.378 2.052 1.487 2.052 2.793zM4.469 4.661c0-1.617 1.322-2.933 2.947-2.933 0.127 0 0.25 0.011 0.372 0.026l-0.716 2.377c-0.010 0-0.019-0.003-0.029-0.003-0 0-0 0-0 0-0.516 0-0.934 0.417-0.936 0.933v0c0.002 0.516 0.42 0.933 0.936 0.933 0 0 0 0 0 0h-0c0.345-0.001 0.646-0.189 0.807-0.468l0.002-0.005 1.931 0.877c-0.537 0.723-1.397 1.195-2.368 1.195-1.625 0-2.947-1.316-2.947-2.934zM7.447 5.061c0 0.221-0.181 0.4-0.403 0.4-0 0-0.001 0-0.001 0-0.221 0-0.401-0.179-0.402-0.4v-0c0-0.221 0.181-0.4 0.403-0.4s0.403 0.179 0.403 0.4zM1.232 12.573c-0.055 0.054-0.13 0.088-0.214 0.088s-0.158-0.033-0.213-0.087l0 0c-0.054-0.054-0.088-0.129-0.088-0.211s0.034-0.157 0.088-0.211l0-0 0.481-0.479 0.425 0.424-0.479 0.477zM2.839 14.44c-0.055 0.054-0.131 0.088-0.214 0.088s-0.159-0.033-0.214-0.088l0 0c-0.054-0.054-0.088-0.129-0.088-0.211s0.034-0.157 0.088-0.211l0-0 0.482-0.479 0.426 0.424-0.48 0.477zM4.58 12.706l-0.001 0.001-0.882 0.88-0.426-0.424 0.882-0.878s0 0 0.001-0.001c0.020-0.020 0.032-0.044 0.045-0.068 0.003-0.007 0.010-0.013 0.013-0.020 0.008-0.021 0.010-0.043 0.013-0.065 0.002-0.012 0.007-0.024 0.007-0.036 0-0.018-0.006-0.035-0.010-0.053-0.003-0.016-0.003-0.033-0.009-0.048-0.010-0.025-0.027-0.047-0.046-0.069-0.005-0.006-0.007-0.014-0.013-0.019h-0l-0-0.001-0.804-0.8c-0.009-0.008-0.019-0.012-0.029-0.019-0.013-0.010-0.027-0.020-0.042-0.028l-0.001-0.001c-0.013-0.006-0.029-0.012-0.045-0.016l-0.002-0c-0.015-0.005-0.032-0.008-0.050-0.010l-0.001-0c-0.003-0-0.007-0-0.010-0-0.013 0-0.026 0.001-0.039 0.003l0.001-0c-0.019 0.002-0.037 0.005-0.054 0.011l0.002-0.001c-0.018 0.006-0.034 0.014-0.048 0.023l0.001-0.001c-0.010 0.005-0.021 0.008-0.030 0.014l-0.887 0.662-0.45-0.448 1.2-1.193 2.18 2.145-0.463 0.46zM7.989 9.197c-0.008-0.001-0.015 0.002-0.022 0.002-0.004-0-0.008-0-0.013-0-0.016 0-0.031 0.001-0.046 0.004l0.002-0c-0.035 0.005-0.066 0.017-0.094 0.035l0.001-0.001c-0.016 0.009-0.029 0.020-0.042 0.031l0-0c-0.006 0.005-0.014 0.008-0.020 0.014l-2.349 2.573-2.164-2.128 1.416-1.409c0.048-0.048 0.078-0.115 0.078-0.188 0-0.147-0.12-0.267-0.267-0.267-0 0-0 0-0.001 0h0l-1.109 0.006 0.014-0.804 1.552 0.013c0.632 0.648 1.514 1.050 2.489 1.050 0.001 0 0.001 0 0.002 0h-0c0.219 0 0.432-0.023 0.64-0.061 0.020 0.016 0.040 0.032 0.065 0.043l1.204 0.48 0.076 0.379 0.089 0.443-1.502-0.213zM10.010 9.286l-0.157-0.779 0.723-0.54 0.473 0.628-1.040 0.691zM11.887 7.871l-0.419 0.392-0.466-0.618 0.416-0.319c0.078-0.060 0.175-0.084 0.271-0.072 0.176 0.025 0.31 0.174 0.31 0.355 0 0.103-0.043 0.195-0.112 0.26l-0 0z"></path>
<path fill="#2e2f42" style="fill: var(--color2, #2e2f42)" d="M6.801 9.272l-1.072-1.067c-0.048-0.048-0.115-0.078-0.188-0.078s-0.14 0.030-0.188 0.078l-1.071 1.067c-0.048 0.048-0.078 0.115-0.078 0.189s0.030 0.141 0.078 0.189l-0-0 1.071 1.066c0.048 0.048 0.115 0.078 0.188 0.078s0.14-0.030 0.188-0.078l1.072-1.066c0.049-0.048 0.079-0.115 0.079-0.189s-0.030-0.141-0.079-0.189l-0-0zM5.542 10.152l-0.693-0.691 0.693-0.69 0.694 0.69-0.694 0.691zM8.582 2.535l-0.129 0.518c0.036 0.009 0.869 0.226 0.869 1.075h0.534c0-1.008-0.833-1.483-1.273-1.593zM9.855 4.661h-0.533v0.534h0.533v-0.534z"></path>
</symbol>
<symbol id="icon-clocks" viewBox="0 0 16 16">
<path fill="#2e2f42" style="fill: var(--color2, #2e2f42)" d="M15.648 7.651c-0.001-4.226-3.428-7.651-7.654-7.651s-7.651 3.428-7.651 7.654c0.001 3.394 2.211 6.272 5.271 7.273l0.054 0.015c0.030 0.009 0.062 0.014 0.093 0.014 0.061 0 0.12-0.016 0.171-0.047 0.067-0.040 0.118-0.104 0.142-0.178l1.933-6.125c0.527-0.002 0.953-0.429 0.953-0.957 0-0.528-0.428-0.957-0.957-0.957-0.152 0-0.295 0.035-0.422 0.098l0.006-0.003-2.553-2.553c-0.058-0.058-0.137-0.093-0.225-0.093-0.176 0-0.319 0.143-0.319 0.319 0 0.088 0.036 0.168 0.093 0.226v0l2.552 2.554c-0.060 0.12-0.096 0.263-0.096 0.413 0 0.301 0.142 0.568 0.362 0.74l0.002 0.002-1.841 5.837c-3.639-1.341-5.502-5.377-4.162-9.016s5.377-5.502 9.016-4.162c3.639 1.341 5.502 5.377 4.162 9.016-0.672 1.791-2.002 3.203-3.687 3.969l-0.044 0.018-0.199-0.937c-0.032-0.145-0.159-0.253-0.312-0.253-0.082 0-0.156 0.031-0.212 0.081l0-0-1.918 1.713c-0.066 0.059-0.107 0.144-0.107 0.238 0 0.142 0.092 0.262 0.22 0.303l0.002 0.001 2.449 0.782c0.029 0.010 0.063 0.015 0.098 0.015 0.176 0 0.319-0.143 0.319-0.319 0-0.024-0.003-0.047-0.007-0.069l0 0.002-0.196-0.919c2.764-1.187 4.664-3.886 4.664-7.028 0-0.006 0-0.011-0-0.017v0.001zM7.996 7.332c0.176 0 0.319 0.143 0.319 0.319s-0.143 0.319-0.319 0.319v0c-0.176 0-0.319-0.143-0.319-0.319s0.143-0.319 0.319-0.319v0zM9.046 14.764l1.092-0.974 0.302 1.42-1.393-0.446z"></path>
<path fill="#4d5ae5" style="fill: var(--color1, #4d5ae5)" d="M7.677 1.593v0.637c0 0.176 0.143 0.319 0.319 0.319s0.319-0.143 0.319-0.319v-0.637c-0.007-0.171-0.147-0.306-0.319-0.306s-0.312 0.136-0.319 0.306l-0 0.001zM1.938 7.332c-0.176 0-0.319 0.143-0.319 0.319s0.143 0.319 0.319 0.319h0.637c0.176 0 0.319-0.143 0.319-0.319s-0.143-0.319-0.319-0.319h-0.637zM14.054 7.97c0.176 0 0.319-0.143 0.319-0.319s-0.143-0.319-0.319-0.319h-0.637c-0.171 0.007-0.306 0.147-0.306 0.319s0.136 0.312 0.306 0.319l0.001 0h0.637z"></path>
</symbol>
<symbol id="icon-diagrams" viewBox="0 0 16 16">
<path fill="#4d5ae5" style="fill: var(--color1, #4d5ae5)" d="M7.463 7.482h0.533v2.399h-0.533v-2.399zM9.595 8.549h0.533v1.332h-0.533v-1.332zM5.33 9.348h0.533v0.533h-0.533v-0.533zM3.731 9.082h0.533v0.8h-0.533v-0.8z"></path>
<path fill="#2e2f42" style="fill: var(--color2, #2e2f42)" d="M0.799 14.146h12.793c0 0 0 0 0 0 0.442 0 0.8-0.358 0.8-0.8v0-1.066c0-0.442-0.358-0.8-0.8-0.8-0 0-0 0-0 0h-0.266v-6.647l1.514-1.434c0.104 0.052 0.226 0.083 0.355 0.083 0.444 0 0.804-0.36 0.804-0.804s-0.36-0.804-0.804-0.804c-0.444 0-0.804 0.36-0.804 0.804 0 0.123 0.028 0.24 0.077 0.345l-0.002-0.005-1.141 1.081v-0.615c0-0.442-0.358-0.8-0.8-0.8v0h-10.661c-0 0-0 0-0 0-0.442 0-0.799 0.358-0.799 0.8 0 0 0 0 0 0v-0 7.995h-0.266c-0.442 0-0.799 0.358-0.799 0.8 0 0 0 0 0 0v-0 1.066c0 0.442 0.358 0.8 0.799 0.8v0zM15.192 2.418c0.147 0 0.267 0.119 0.267 0.267s-0.119 0.267-0.267 0.267v0c-0.147 0-0.267-0.119-0.267-0.267s0.119-0.267 0.267-0.267v0zM1.599 3.485c0-0.147 0.119-0.267 0.266-0.267h10.661c0.147 0 0.267 0.119 0.267 0.267v1.119l-0.533 0.506v-1.093c0-0.147-0.119-0.267-0.267-0.267h-9.595c-0.147 0-0.267 0.119-0.267 0.267v6.663c0 0.148 0.119 0.267 0.267 0.267h9.595c0.147 0 0.267-0.12 0.267-0.267v-4.837l0.533-0.505v6.141h-11.194v-7.995zM3.998 6.949c-0.001 0-0.001 0-0.002 0-0.442 0-0.8 0.358-0.8 0.8s0.358 0.799 0.8 0.799c0.216 0 0.412-0.086 0.556-0.225l-0 0 0.926 0.465c0.107 0.054 0.238 0.028 0.318-0.062l1.969-2.216 1.936 1.451c0.104 0.078 0.249 0.070 0.343-0.020l1.683-1.594v4.065h-9.062v-6.13h9.062v1.33l-1.886 1.786-1.952-1.464c-0.044-0.033-0.099-0.053-0.16-0.053-0.079 0-0.15 0.034-0.199 0.089l-0 0-1.997 2.246-0.747-0.373c0.005-0.032 0.009-0.064 0.010-0.097-0-0.442-0.358-0.799-0.799-0.8h-0zM4.264 7.749c0 0.147-0.119 0.267-0.267 0.267s-0.267-0.119-0.267-0.267v0c0-0.147 0.119-0.267 0.267-0.267s0.267 0.119 0.267 0.267v0zM5.864 12.013h2.665v0.267c0 0.147-0.119 0.267-0.267 0.267h-2.132c-0.147 0-0.266-0.119-0.266-0.267v0-0.267zM0.533 12.28c0-0.147 0.12-0.267 0.267-0.267h4.531v0.267c0 0 0 0 0 0 0 0.442 0.358 0.8 0.8 0.8h2.132c0.442 0 0.8-0.358 0.8-0.8 0-0 0-0 0-0v0-0.267h4.53c0.148 0 0.267 0.119 0.267 0.267v1.066c0 0.147-0.12 0.267-0.267 0.267h-12.793c-0.147 0-0.266-0.119-0.266-0.267v0-1.066z"></path>
</symbol>
<symbol id="icon-closes" viewBox="0 0 16 16">
<path d="M16 1.612l-1.612-1.612-6.388 6.388-6.388-6.388-1.612 1.612 6.388 6.388-6.388 6.388 1.612 1.612 6.388-6.388 6.388 6.388 1.612-1.612-6.388-6.388 6.388-6.388z"></path>
</symbol>
<symbol id="icon-phone" viewBox="0 0 12 16">
<path d="M9.817 9.243l-1.225-0.14c-0.033-0.004-0.072-0.007-0.112-0.007-0.266 0-0.506 0.108-0.68 0.282l-0.887 0.887c-1.376-0.71-2.47-1.803-3.161-3.139l-0.019-0.040 0.893-0.893c0.174-0.174 0.281-0.414 0.281-0.679 0-0.039-0.002-0.078-0.007-0.116l0 0.005-0.14-1.216c-0.058-0.483-0.465-0.854-0.959-0.854-0 0-0.001 0-0.001 0h-0.835c-0.545 0-0.999 0.453-0.965 0.999 0.255 4.12 3.551 7.411 7.666 7.667 0.545 0.033 0.999-0.42 0.999-0.965v-0.835c0-0.002 0-0.003 0-0.005 0-0.49-0.369-0.895-0.845-0.95l-0.004-0z"></path>
</symbol>
<symbol id="icon-person" viewBox="0 0 16 16">
<path d="M8 8c1.473 0 2.667-1.194 2.667-2.667s-1.194-2.667-2.667-2.667v0c-1.473 0-2.667 1.194-2.667 2.667s1.194 2.667 2.667 2.667v0zM8 9.333c-1.78 0-5.333 0.893-5.333 2.667v0.667c0 0.366 0.3 0.667 0.667 0.667h9.333c0.366 0 0.667-0.3 0.667-0.667v-0.667c0-1.773-3.554-2.667-5.333-2.667z"></path>
</symbol>
<symbol id="icon-line" viewBox="0 0 2 16">
<path stroke-linejoin="miter" stroke-linecap="round" stroke-miterlimit="4" stroke-width="1.1111" d="M0.556 0.556v14.889"></path>
</symbol>
<symbol id="icon-email" viewBox="0 0 12 16">
<path d="M10 4h-8c-0.55 0-0.995 0.45-0.995 1l-0.005 6c0 0.55 0.45 1 1 1h8c0.55 0 1-0.45 1-1v-6c0-0.55-0.45-1-1-1zM9.8 6.125l-3.535 2.209c-0.075 0.047-0.167 0.075-0.265 0.075s-0.19-0.028-0.267-0.076l0.002 0.001-3.535-2.209c-0.126-0.075-0.209-0.211-0.209-0.366 0-0.235 0.19-0.425 0.425-0.425 0.087 0 0.168 0.026 0.236 0.071l3.348 2.094 3.35-2.095c0.066-0.044 0.147-0.070 0.234-0.070 0.235 0 0.425 0.19 0.425 0.425 0 0.155-0.083 0.29-0.207 0.365l-0.002 0.001z"></path>
</symbol>
<symbol id="icon-icon-send" viewBox="0 0 19 16">
<path fill="#fff" style="fill: var(--color1, #fff)" d="M19.2 0l-19.2 9 6.136 1.894 9.464-7.394-7.198 8.093 0.006 0.002-0.007-0.002v4.407l3.441-3.346 4.36 1.346 2.999-14z"></path>
</symbol>
</defs>
</svg>
